<svg width="172" height="148" viewBox="0 0 172 148" fill="none" xmlns="http://www.w3.org/2000/svg">
<rect x="4" y="13.0004" width="164" height="130" rx="10" fill="#DD2D69"/>
<rect width="76.6257" height="50.9391" rx="5" transform="matrix(0.260867 -0.96658 0.962781 0.265972 14 78.0648)" fill="#E25082"/>
<path d="M46.453 56.6841C44.5459 54.6869 44.6138 51.5165 46.6045 49.6027L94.5971 3.46519C96.5879 1.55143 99.7476 1.61905 101.655 3.61623L129.951 33.2504C131.858 35.2476 131.79 38.418 129.799 40.3318L81.8067 86.4693C79.816 88.383 76.6562 88.3154 74.7492 86.3182L46.453 56.6841Z" fill="#D41F5C"/>
<rect width="76.6257" height="50.9391" rx="5" transform="matrix(0.948091 -0.32164 0.315284 0.947779 75 37.6459)" fill="#E25082"/>
<path d="M134.942 38.4015L131.367 39.5984C130.381 39.9285 129.315 39.3485 128.541 38.651C127.078 37.3381 124.589 36.9013 122.725 37.5253C121.54 37.9219 120.561 38.773 120.004 39.8912C119.446 41.0095 119.356 42.3034 119.753 43.4883C120.149 44.6731 121 45.6519 122.119 46.2092C123.237 46.7666 124.531 46.8569 125.716 46.4602C124.531 46.8569 123.552 47.7079 122.995 48.8262C122.437 49.9445 122.347 51.2384 122.744 52.4232C123.14 53.6081 123.991 54.5868 125.11 55.1442C126.228 55.7016 127.522 55.7918 128.707 55.3952C130.571 54.7712 132.297 52.9232 132.672 50.9929C132.871 49.9718 133.372 48.8652 134.358 48.5351L137.934 47.3383M99.5748 50.3178L103.148 49.1215C104.136 48.7908 104.638 47.6842 104.836 46.6632C105.211 44.7311 106.936 42.8854 108.802 42.2609C109.987 41.8642 111.281 41.9545 112.399 42.5119C113.517 43.0692 114.368 44.048 114.765 45.2328C115.162 46.4177 115.071 47.7116 114.514 48.8298C113.957 49.9481 112.978 50.7992 111.793 51.1958C112.978 50.7992 114.272 50.8895 115.39 51.4468C116.508 52.0042 117.359 52.983 117.756 54.1678C118.153 55.3527 118.062 56.6465 117.505 57.7648C116.948 58.8831 115.969 59.7342 114.784 60.1308C112.918 60.7554 110.429 60.3185 108.967 59.0033C108.194 58.3076 107.127 57.7258 106.139 58.0565L102.566 59.2528" stroke="white" stroke-width="1.5" stroke-linecap="round" stroke-linejoin="round"/>
<path d="M112.845 31.0457C121.205 28.247 125.385 26.8477 128.853 28.5744C132.32 30.3052 133.718 34.4836 136.517 42.8439C139.316 51.2043 140.715 55.3845 138.988 58.8501C137.258 62.3186 133.079 63.7174 124.719 66.516C116.358 69.3147 112.178 70.714 108.712 68.985C105.245 67.2601 103.845 63.0781 101.047 54.7178C98.248 46.3574 96.8487 42.1772 98.5771 38.7093C100.303 35.2443 104.485 33.8444 112.845 31.0457Z" stroke="white" stroke-width="1.5"/>
<g filter="url(#filter0_d_914_572)">
<path d="M4 40.2625H48.37C51.5444 40.2625 54.6731 41.018 57.4976 42.4668L74.2478 51.0581C77.0723 52.5069 80.2011 53.2625 83.3754 53.2625H168V133.262C168 138.785 163.523 143.262 158 143.262H14C8.47715 143.262 4 138.785 4 133.262V40.2625Z" fill="#93153F"/>
</g>
<path d="M26.14 124.204C25.2333 124.204 24.389 124.04 23.607 123.711C22.8363 123.383 22.162 122.924 21.584 122.334C21.006 121.745 20.5527 121.054 20.224 120.26C19.9067 119.467 19.748 118.6 19.748 117.659C19.748 116.719 19.9067 115.852 20.224 115.058C20.5413 114.254 20.989 113.562 21.567 112.984C22.145 112.395 22.8193 111.942 23.59 111.624C24.372 111.296 25.222 111.131 26.14 111.131C27.058 111.131 27.8797 111.284 28.605 111.59C29.3417 111.896 29.965 112.304 30.475 112.814C30.985 113.324 31.3477 113.891 31.563 114.514L29.234 115.636C29.0187 115.024 28.639 114.52 28.095 114.123C27.5623 113.715 26.9107 113.511 26.14 113.511C25.392 113.511 24.7347 113.687 24.168 114.038C23.6013 114.39 23.1593 114.877 22.842 115.5C22.536 116.112 22.383 116.832 22.383 117.659C22.383 118.487 22.536 119.212 22.842 119.835C23.1593 120.459 23.6013 120.946 24.168 121.297C24.7347 121.649 25.392 121.824 26.14 121.824C26.9107 121.824 27.5623 121.626 28.095 121.229C28.639 120.821 29.0187 120.311 29.234 119.699L31.563 120.821C31.3477 121.445 30.985 122.011 30.475 122.521C29.965 123.031 29.3417 123.439 28.605 123.745C27.8797 124.051 27.058 124.204 26.14 124.204ZM37.5078 124.204C36.5898 124.204 35.7512 123.995 34.9918 123.575C34.2438 123.156 33.6432 122.584 33.1898 121.858C32.7478 121.122 32.5268 120.289 32.5268 119.359C32.5268 118.419 32.7478 117.586 33.1898 116.86C33.6432 116.135 34.2438 115.563 34.9918 115.143C35.7512 114.724 36.5898 114.514 37.5078 114.514C38.4258 114.514 39.2588 114.724 40.0068 115.143C40.7548 115.563 41.3498 116.135 41.7918 116.86C42.2452 117.586 42.4718 118.419 42.4718 119.359C42.4718 120.289 42.2452 121.122 41.7918 121.858C41.3498 122.584 40.7548 123.156 40.0068 123.575C39.2588 123.995 38.4258 124.204 37.5078 124.204ZM37.5078 121.909C37.9725 121.909 38.3748 121.802 38.7148 121.586C39.0662 121.371 39.3382 121.071 39.5308 120.685C39.7348 120.3 39.8368 119.858 39.8368 119.359C39.8368 118.861 39.7348 118.424 39.5308 118.05C39.3382 117.665 39.0662 117.365 38.7148 117.149C38.3748 116.923 37.9725 116.809 37.5078 116.809C37.0432 116.809 36.6352 116.923 36.2838 117.149C35.9325 117.365 35.6548 117.665 35.4508 118.05C35.2582 118.424 35.1618 118.861 35.1618 119.359C35.1618 119.858 35.2582 120.3 35.4508 120.685C35.6548 121.071 35.9325 121.371 36.2838 121.586C36.6352 121.802 37.0432 121.909 37.5078 121.909ZM43.9741 124V114.718H46.3541V116.554L46.2181 116.146C46.4334 115.591 46.7791 115.183 47.2551 114.922C47.7424 114.65 48.3091 114.514 48.9551 114.514C49.6577 114.514 50.2697 114.662 50.7911 114.956C51.3237 115.251 51.7374 115.665 52.0321 116.197C52.3267 116.719 52.4741 117.331 52.4741 118.033V124H49.9241V118.577C49.9241 118.215 49.8504 117.903 49.7031 117.642C49.5671 117.382 49.3687 117.178 49.1081 117.03C48.8587 116.883 48.5641 116.809 48.2241 116.809C47.8954 116.809 47.6007 116.883 47.3401 117.03C47.0794 117.178 46.8754 117.382 46.7281 117.642C46.5921 117.903 46.5241 118.215 46.5241 118.577V124H43.9741ZM58.6218 124.102C57.4998 124.102 56.6272 123.802 56.0038 123.201C55.3918 122.589 55.0858 121.739 55.0858 120.651V116.928H53.5218V114.718H53.6068C54.0828 114.718 54.4455 114.599 54.6948 114.361C54.9555 114.123 55.0858 113.766 55.0858 113.29V112.61H57.6358V114.718H59.8118V116.928H57.6358V120.481C57.6358 120.799 57.6925 121.065 57.8058 121.28C57.9192 121.484 58.0948 121.637 58.3328 121.739C58.5708 121.841 58.8655 121.892 59.2168 121.892C59.2962 121.892 59.3868 121.887 59.4888 121.875C59.5908 121.864 59.6985 121.853 59.8118 121.841V124C59.6418 124.023 59.4492 124.046 59.2338 124.068C59.0185 124.091 58.8145 124.102 58.6218 124.102ZM65.9131 124.204C64.9951 124.204 64.1564 123.995 63.3971 123.575C62.6491 123.156 62.0484 122.584 61.5951 121.858C61.1531 121.122 60.9321 120.289 60.9321 119.359C60.9321 118.419 61.1531 117.586 61.5951 116.86C62.0484 116.135 62.6491 115.563 63.3971 115.143C64.1564 114.724 64.9951 114.514 65.9131 114.514C66.8311 114.514 67.6641 114.724 68.4121 115.143C69.1601 115.563 69.7551 116.135 70.1971 116.86C70.6504 117.586 70.8771 118.419 70.8771 119.359C70.8771 120.289 70.6504 121.122 70.1971 121.858C69.7551 122.584 69.1601 123.156 68.4121 123.575C67.6641 123.995 66.8311 124.204 65.9131 124.204ZM65.9131 121.909C66.3778 121.909 66.7801 121.802 67.1201 121.586C67.4714 121.371 67.7434 121.071 67.9361 120.685C68.1401 120.3 68.2421 119.858 68.2421 119.359C68.2421 118.861 68.1401 118.424 67.9361 118.05C67.7434 117.665 67.4714 117.365 67.1201 117.149C66.7801 116.923 66.3778 116.809 65.9131 116.809C65.4484 116.809 65.0404 116.923 64.6891 117.149C64.3378 117.365 64.0601 117.665 63.8561 118.05C63.6634 118.424 63.5671 118.861 63.5671 119.359C63.5671 119.858 63.6634 120.3 63.8561 120.685C64.0601 121.071 64.3378 121.371 64.6891 121.586C65.0404 121.802 65.4484 121.909 65.9131 121.909ZM75.7113 124.204C74.9633 124.204 74.323 124.046 73.7903 123.728C73.269 123.4 72.8723 122.946 72.6003 122.368C72.3283 121.79 72.1923 121.116 72.1923 120.345V114.718H74.7423V120.141C74.7423 120.493 74.8103 120.804 74.9463 121.076C75.0937 121.337 75.2977 121.541 75.5583 121.688C75.819 121.836 76.1137 121.909 76.4423 121.909C76.7823 121.909 77.077 121.836 77.3263 121.688C77.587 121.541 77.7853 121.337 77.9213 121.076C78.0687 120.804 78.1423 120.493 78.1423 120.141V114.718H80.6923V124H78.3123V122.164L78.4483 122.572C78.233 123.128 77.8817 123.541 77.3943 123.813C76.9183 124.074 76.3573 124.204 75.7113 124.204ZM82.5561 124V114.718H84.9361V116.945L84.7661 116.622C84.9701 115.84 85.3044 115.313 85.7691 115.041C86.2451 114.758 86.8061 114.616 87.4521 114.616H87.9961V116.826H87.1971C86.5738 116.826 86.0694 117.019 85.6841 117.404C85.2988 117.778 85.1061 118.311 85.1061 119.002V124H82.5561ZM89.1137 124V114.718H91.6637V124H89.1137ZM89.1137 113.885V111.335H91.6637V113.885H89.1137ZM93.5297 124V114.718H95.9097V116.554L95.7737 116.146C95.9891 115.591 96.3347 115.183 96.8107 114.922C97.2981 114.65 97.8647 114.514 98.5107 114.514C99.2134 114.514 99.8254 114.662 100.347 114.956C100.879 115.251 101.293 115.665 101.588 116.197C101.882 116.719 102.03 117.331 102.03 118.033V124H99.4797V118.577C99.4797 118.215 99.4061 117.903 99.2587 117.642C99.1227 117.382 98.9244 117.178 98.6637 117.03C98.4144 116.883 98.1197 116.809 97.7797 116.809C97.4511 116.809 97.1564 116.883 96.8957 117.03C96.6351 117.178 96.4311 117.382 96.2837 117.642C96.1477 117.903 96.0797 118.215 96.0797 118.577V124H93.5297ZM108.262 127.74C107.548 127.74 106.885 127.621 106.273 127.383C105.661 127.145 105.134 126.811 104.692 126.38C104.262 125.961 103.95 125.462 103.757 124.884L106.12 124.051C106.245 124.482 106.5 124.822 106.885 125.071C107.271 125.321 107.73 125.445 108.262 125.445C108.682 125.445 109.044 125.366 109.35 125.207C109.656 125.06 109.889 124.839 110.047 124.544C110.217 124.25 110.302 123.904 110.302 123.507V121.382L110.795 121.994C110.478 122.516 110.07 122.907 109.571 123.167C109.073 123.417 108.489 123.541 107.82 123.541C106.959 123.541 106.188 123.349 105.508 122.963C104.828 122.567 104.296 122.028 103.91 121.348C103.525 120.657 103.332 119.875 103.332 119.002C103.332 118.13 103.525 117.359 103.91 116.69C104.296 116.01 104.823 115.478 105.491 115.092C106.16 114.707 106.919 114.514 107.769 114.514C108.438 114.514 109.022 114.65 109.52 114.922C110.019 115.183 110.444 115.585 110.795 116.129L110.472 116.741V114.718H112.852V123.507C112.852 124.323 112.654 125.049 112.257 125.683C111.861 126.329 111.317 126.834 110.625 127.196C109.945 127.559 109.158 127.74 108.262 127.74ZM108.177 121.229C108.608 121.229 108.982 121.139 109.299 120.957C109.617 120.776 109.86 120.521 110.03 120.192C110.212 119.864 110.302 119.478 110.302 119.036C110.302 118.594 110.212 118.209 110.03 117.88C109.849 117.54 109.6 117.28 109.282 117.098C108.965 116.906 108.597 116.809 108.177 116.809C107.747 116.809 107.361 116.906 107.021 117.098C106.693 117.28 106.432 117.54 106.239 117.88C106.058 118.209 105.967 118.594 105.967 119.036C105.967 119.467 106.058 119.847 106.239 120.175C106.432 120.504 106.693 120.765 107.021 120.957C107.361 121.139 107.747 121.229 108.177 121.229ZM118.368 124.204C117.348 124.204 116.458 123.966 115.699 123.49C114.951 123.003 114.441 122.351 114.169 121.535L116.039 120.651C116.277 121.15 116.6 121.541 117.008 121.824C117.416 122.108 117.869 122.249 118.368 122.249C118.731 122.249 119.008 122.176 119.201 122.028C119.394 121.881 119.49 121.677 119.49 121.416C119.49 121.28 119.456 121.167 119.388 121.076C119.32 120.974 119.218 120.884 119.082 120.804C118.946 120.725 118.776 120.657 118.572 120.6L116.991 120.158C116.232 119.943 115.648 119.597 115.24 119.121C114.832 118.634 114.628 118.062 114.628 117.404C114.628 116.826 114.775 116.322 115.07 115.891C115.365 115.461 115.778 115.126 116.311 114.888C116.844 114.639 117.456 114.514 118.147 114.514C119.054 114.514 119.847 114.73 120.527 115.16C121.218 115.58 121.706 116.175 121.989 116.945L120.102 117.829C119.966 117.444 119.717 117.138 119.354 116.911C119.003 116.673 118.6 116.554 118.147 116.554C117.818 116.554 117.558 116.622 117.365 116.758C117.184 116.894 117.093 117.081 117.093 117.319C117.093 117.444 117.127 117.557 117.195 117.659C117.263 117.761 117.371 117.852 117.518 117.931C117.677 118.011 117.869 118.084 118.096 118.152L119.575 118.594C120.346 118.821 120.935 119.167 121.343 119.631C121.751 120.085 121.955 120.646 121.955 121.314C121.955 121.892 121.802 122.397 121.496 122.827C121.201 123.258 120.788 123.598 120.255 123.847C119.722 124.085 119.093 124.204 118.368 124.204Z" fill="white"/>
<path d="M136 118C135.448 118 135 118.448 135 119C135 119.553 135.448 120 136 120V118ZM153.707 119.708C154.098 119.317 154.098 118.684 153.707 118.293L147.343 111.929C146.953 111.539 146.319 111.539 145.929 111.929C145.538 112.32 145.538 112.953 145.929 113.344L151.586 119L145.929 124.657C145.538 125.048 145.538 125.681 145.929 126.072C146.319 126.462 146.953 126.462 147.343 126.072L153.707 119.708ZM136 119V120H153V119V118H136V119Z" fill="white"/>
<defs>
<filter id="filter0_d_914_572" x="0" y="36.2625" width="172" height="111" filterUnits="userSpaceOnUse" color-interpolation-filters="sRGB">
<feFlood flood-opacity="0" result="BackgroundImageFix"/>
<feColorMatrix in="SourceAlpha" type="matrix" values="0 0 0 0 0 0 0 0 0 0 0 0 0 0 0 0 0 0 127 0" result="hardAlpha"/>
<feOffset/>
<feGaussianBlur stdDeviation="2"/>
<feComposite in2="hardAlpha" operator="out"/>
<feColorMatrix type="matrix" values="0 0 0 0 0 0 0 0 0 0 0 0 0 0 0 0 0 0 0.25 0"/>
<feBlend mode="normal" in2="BackgroundImageFix" result="effect1_dropShadow_914_572"/>
<feBlend mode="normal" in="SourceGraphic" in2="effect1_dropShadow_914_572" result="shape"/>
</filter>
</defs>
</svg>
