<svg width="31" height="31" viewBox="0 0 31 31" fill="none" xmlns="http://www.w3.org/2000/svg">
<path d="M1.00586 19.1774H3.84554C4.62871 19.1774 5.2513 19.852 5.63725 20.5408C6.3683 21.8388 8.04168 22.7534 9.52209 22.7534C10.4631 22.7534 11.3656 22.3765 12.031 21.7056C12.6965 21.0347 13.0703 20.1248 13.0703 19.176C13.0703 18.2272 12.6965 17.3173 12.031 16.6464C11.3656 15.9755 10.4631 15.5986 9.52209 15.5986C10.4631 15.5986 11.3656 15.2217 12.031 14.5508C12.6965 13.8799 13.0703 12.97 13.0703 12.0212C13.0703 11.0724 12.6965 10.1625 12.031 9.49162C11.3656 8.82073 10.4631 8.44382 9.52209 8.44382C8.04168 8.44382 6.36689 9.35841 5.63725 10.6579C5.2513 11.3452 4.62871 12.0212 3.84554 12.0212H1.00586M29.1139 19.1221H26.2757C25.4911 19.1221 24.8685 19.7981 24.4825 20.4854C23.7529 21.7863 22.0795 22.6995 20.5977 22.6995C19.6567 22.6995 18.7542 22.3225 18.0887 21.6517C17.4233 20.9808 17.0495 20.0708 17.0495 19.1221C17.0495 18.1733 17.4233 17.2633 18.0887 16.5924C18.7542 15.9216 19.6567 15.5447 20.5977 15.5447C19.6567 15.5447 18.7542 15.1678 18.0887 14.4969C17.4233 13.826 17.0495 12.916 17.0495 11.9673C17.0495 11.0185 17.4233 10.1085 18.0887 9.43765C18.7542 8.76676 19.6567 8.38986 20.5977 8.38986C22.0795 8.38986 23.7529 9.30444 24.4825 10.6039C24.8685 11.2913 25.4911 11.9673 26.2757 11.9673H29.1139" stroke="#1D1D1D" stroke-width="2" stroke-linecap="round" stroke-linejoin="round"/>
<path d="M15.0857 29.4033C8.44572 29.4033 5.12571 29.4033 3.06215 27.3242C1 25.2422 1 21.8963 1 15.2017C1 8.507 1 5.15967 3.06215 3.08054C5.12712 1 8.44572 1 15.0857 1C21.7257 1 25.0457 1 27.1079 3.08054C29.1715 5.15825 29.1715 8.507 29.1715 15.2017C29.1715 21.8963 29.1715 25.2437 27.1079 27.3242C25.0472 29.4033 21.7257 29.4033 15.0857 29.4033Z" stroke="#1D1D1D" stroke-width="2"/>
</svg>
