<svg width="27" height="31" viewBox="0 0 27 31" fill="none" xmlns="http://www.w3.org/2000/svg">
<path d="M25.7939 29.8634L25.9337 25.5634C26.0654 21.51 26.1314 19.4818 24.8102 18.2309C23.4906 16.9785 21.2978 16.9906 16.9155 17.0147L13.7231 19.8984L10.717 17.0489C6.33473 17.073 4.14202 17.0851 2.7405 18.3525C1.33747 19.6185 1.27155 21.6466 1.13978 25.7L1 30M20.0047 17.0223L19.7585 24.8809M8.25138 17.0738L8.11829 22.7123M8.11829 22.7123C8.94687 22.7076 9.73157 23.0077 10.2998 23.5465C10.868 24.0854 11.1731 24.8188 11.1481 25.5855L11.1009 27.0309M8.11829 22.7123C7.28971 22.717 6.48512 23.026 5.88153 23.5715C5.27793 24.1169 4.92478 24.8541 4.89975 25.6208L4.85256 27.0662M19.5483 7.47365L19.5955 6.02822C19.6172 5.36387 19.4973 4.70682 19.2425 4.09458C18.9878 3.48235 18.6033 2.92693 18.111 2.46002C17.6186 1.99312 17.0281 1.62388 16.373 1.37338C15.718 1.12289 15.0113 0.996043 14.2934 1.00009C13.5754 1.00415 12.8602 1.13901 12.1885 1.39699C11.5169 1.65497 10.902 2.03101 10.379 2.50365C9.85601 2.97628 9.43508 3.53625 9.14029 4.15159C8.84549 4.76692 8.6826 5.42557 8.66092 6.08992L8.61373 7.53535C8.59204 8.1997 8.71198 8.85675 8.9667 9.46898C9.22143 10.0812 9.60594 10.6366 10.0983 11.1035C10.5906 11.5705 11.1812 11.9397 11.8362 12.1902C12.4912 12.4407 13.1979 12.5675 13.9159 12.5635C14.6339 12.5594 15.3491 12.4246 16.0207 12.1666C16.6923 11.9086 17.3072 11.5326 17.8302 11.0599C18.3532 10.5873 18.7742 10.0273 19.069 9.41198C19.3637 8.79665 19.5266 8.138 19.5483 7.47365ZM20.8993 25.8918C20.8899 26.1793 20.7575 26.4557 20.5312 26.6603C20.3048 26.8648 20.0031 26.9807 19.6924 26.9824C19.3817 26.9842 19.0874 26.8717 18.8743 26.6696C18.6612 26.4675 18.5468 26.1925 18.5562 25.905C18.5656 25.6175 18.698 25.341 18.9244 25.1365C19.1507 24.932 19.4524 24.8161 19.7632 24.8143C20.0739 24.8126 20.3681 24.9251 20.5812 25.1272C20.7943 25.3292 20.9087 25.6043 20.8993 25.8918Z" stroke="#1D1D1D" stroke-width="2" stroke-linecap="round" stroke-linejoin="round"/>
</svg>
