<svg width="172" height="148" viewBox="0 0 172 148" fill="none" xmlns="http://www.w3.org/2000/svg">
<rect x="4" y="13.0004" width="164" height="130" rx="10" fill="#13AAFC"/>
<rect width="76.6257" height="50.9391" rx="5" transform="matrix(0.260867 -0.96658 0.962781 0.265972 14 78.0649)" fill="#40BBFE"/>
<path d="M46.453 56.6841C44.5459 54.6869 44.6138 51.5165 46.6045 49.6027L94.5971 3.46519C96.5879 1.55143 99.7476 1.61905 101.655 3.61623L129.951 33.2504C131.858 35.2476 131.79 38.418 129.799 40.3318L81.8067 86.4693C79.816 88.383 76.6562 88.3154 74.7492 86.3182L46.453 56.6841Z" fill="#06A4FA"/>
<rect width="76.6257" height="50.9391" rx="5" transform="matrix(0.948091 -0.32164 0.315284 0.947779 75 37.6458)" fill="#40BBFE"/>
<path d="M136.487 58.8116L135.217 54.3723C134.02 50.1875 133.421 48.0937 131.636 47.2585C129.851 46.4213 127.575 47.1684 123.026 48.6614L120.655 52.6768L116.591 50.7732C112.042 52.2663 109.766 53.0133 108.726 54.7776C107.683 56.5409 108.282 58.6347 109.479 62.8195L110.749 67.2587M126.243 47.6055L128.571 55.7442" stroke="white" stroke-width="2" stroke-linecap="round" stroke-linejoin="round"/>
<path d="M114.048 51.4597L115.755 57.429M115.755 57.429C116.615 57.1466 117.529 57.1902 118.298 57.5502C119.066 57.9102 119.625 58.5572 119.851 59.3488L120.278 60.8411M115.755 57.429C114.894 57.7114 114.16 58.2967 113.711 59.0561C113.263 59.8155 113.139 60.6868 113.365 61.4784L113.792 62.9707M122.625 38.0328L122.198 36.5405C122.002 35.8545 121.661 35.2236 121.195 34.6835C120.728 34.1434 120.146 33.7049 119.48 33.3929C118.814 33.081 118.079 32.9017 117.315 32.8653C116.551 32.8288 115.775 32.9361 115.03 33.1808C114.284 33.4255 113.585 33.8029 112.971 34.2915C112.358 34.78 111.842 35.3702 111.454 36.0282C111.066 36.6863 110.812 37.3993 110.708 38.1267C110.604 38.854 110.652 39.5814 110.848 40.2673L111.274 41.7596C111.471 42.4455 111.812 43.0765 112.278 43.6166C112.744 44.1566 113.327 44.5952 113.993 44.9071C114.658 45.2191 115.394 45.3984 116.158 45.4348C116.921 45.4712 117.698 45.364 118.443 45.1193C119.188 44.8746 119.888 44.4972 120.501 44.0086C121.115 43.5201 121.63 42.9299 122.019 42.2719C122.407 41.6138 122.66 40.9008 122.764 40.1734C122.868 39.4461 122.821 38.7187 122.625 38.0328ZM130.092 56.3943C130.177 56.6912 130.13 57.0179 129.962 57.3027C129.794 57.5875 129.518 57.807 129.196 57.9129C128.873 58.0188 128.53 58.0024 128.242 57.8674C127.954 57.7324 127.745 57.4898 127.66 57.1929C127.575 56.8961 127.622 56.5693 127.79 56.2846C127.958 55.9998 128.233 55.7803 128.556 55.6744C128.878 55.5685 129.221 55.5848 129.51 55.7199C129.798 55.8549 130.007 56.0975 130.092 56.3943Z" stroke="white" stroke-width="2" stroke-linecap="round" stroke-linejoin="round"/>
<g filter="url(#filter0_d_938_9825)">
<path d="M4 40.2625H48.37C51.5444 40.2625 54.6731 41.018 57.4976 42.4668L74.2478 51.0581C77.0723 52.5069 80.2011 53.2625 83.3754 53.2625H168V133.262C168 138.785 163.523 143.262 158 143.262H14C8.47715 143.262 4 138.785 4 133.262V40.2625Z" fill="#026BA4"/>
</g>
<path d="M20.122 124V111.335H24.253C25.6243 111.335 26.8143 111.607 27.823 112.151C28.8317 112.695 29.6137 113.443 30.169 114.395C30.7243 115.347 31.002 116.435 31.002 117.659C31.002 118.883 30.7243 119.977 30.169 120.94C29.6137 121.892 28.8317 122.64 27.823 123.184C26.8143 123.728 25.6243 124 24.253 124H20.122ZM22.757 121.705H24.321C25.1483 121.705 25.8623 121.541 26.463 121.212C27.0637 120.872 27.5283 120.402 27.857 119.801C28.197 119.189 28.367 118.475 28.367 117.659C28.367 116.832 28.197 116.118 27.857 115.517C27.5283 114.916 27.0637 114.452 26.463 114.123C25.8623 113.794 25.1483 113.63 24.321 113.63H22.757V121.705ZM37.1094 124.204C36.1914 124.204 35.3527 123.994 34.5934 123.575C33.8454 123.156 33.2447 122.583 32.7914 121.858C32.3494 121.121 32.1284 120.288 32.1284 119.359C32.1284 118.418 32.3494 117.585 32.7914 116.86C33.2447 116.135 33.8454 115.562 34.5934 115.143C35.3527 114.724 36.1914 114.514 37.1094 114.514C38.0274 114.514 38.8604 114.724 39.6084 115.143C40.3564 115.562 40.9514 116.135 41.3934 116.86C41.8467 117.585 42.0734 118.418 42.0734 119.359C42.0734 120.288 41.8467 121.121 41.3934 121.858C40.9514 122.583 40.3564 123.156 39.6084 123.575C38.8604 123.994 38.0274 124.204 37.1094 124.204ZM37.1094 121.909C37.574 121.909 37.9764 121.801 38.3164 121.586C38.6677 121.371 38.9397 121.07 39.1324 120.685C39.3364 120.3 39.4384 119.858 39.4384 119.359C39.4384 118.86 39.3364 118.424 39.1324 118.05C38.9397 117.665 38.6677 117.364 38.3164 117.149C37.9764 116.922 37.574 116.809 37.1094 116.809C36.6447 116.809 36.2367 116.922 35.8854 117.149C35.534 117.364 35.2564 117.665 35.0524 118.05C34.8597 118.424 34.7634 118.86 34.7634 119.359C34.7634 119.858 34.8597 120.3 35.0524 120.685C35.2564 121.07 35.534 121.371 35.8854 121.586C36.2367 121.801 36.6447 121.909 37.1094 121.909ZM48.1316 124.204C47.2023 124.204 46.3636 123.994 45.6156 123.575C44.879 123.144 44.2896 122.561 43.8476 121.824C43.417 121.087 43.2016 120.26 43.2016 119.342C43.2016 118.424 43.417 117.602 43.8476 116.877C44.2783 116.14 44.8676 115.562 45.6156 115.143C46.3636 114.724 47.2023 114.514 48.1316 114.514C48.823 114.514 49.4633 114.633 50.0526 114.871C50.642 115.109 51.1463 115.443 51.5656 115.874C51.985 116.293 52.2853 116.792 52.4666 117.37L50.2566 118.322C50.098 117.857 49.826 117.489 49.4406 117.217C49.0666 116.945 48.6303 116.809 48.1316 116.809C47.6896 116.809 47.293 116.917 46.9416 117.132C46.6016 117.347 46.3296 117.648 46.1256 118.033C45.933 118.418 45.8366 118.86 45.8366 119.359C45.8366 119.858 45.933 120.3 46.1256 120.685C46.3296 121.07 46.6016 121.371 46.9416 121.586C47.293 121.801 47.6896 121.909 48.1316 121.909C48.6416 121.909 49.0836 121.773 49.4576 121.501C49.8316 121.229 50.098 120.861 50.2566 120.396L52.4666 121.365C52.2966 121.909 52.002 122.396 51.5826 122.827C51.1633 123.258 50.659 123.598 50.0696 123.847C49.4803 124.085 48.8343 124.204 48.1316 124.204ZM58.4392 124.102C57.3172 124.102 56.4445 123.802 55.8212 123.201C55.2092 122.589 54.9032 121.739 54.9032 120.651V116.928H53.3392V114.718H53.4242C53.9002 114.718 54.2629 114.599 54.5122 114.361C54.7729 114.123 54.9032 113.766 54.9032 113.29V112.61H57.4532V114.718H59.6292V116.928H57.4532V120.481C57.4532 120.798 57.5099 121.065 57.6232 121.28C57.7365 121.484 57.9122 121.637 58.1502 121.739C58.3882 121.841 58.6829 121.892 59.0342 121.892C59.1135 121.892 59.2042 121.886 59.3062 121.875C59.4082 121.864 59.5159 121.852 59.6292 121.841V124C59.4592 124.023 59.2665 124.045 59.0512 124.068C58.8359 124.091 58.6319 124.102 58.4392 124.102ZM65.7305 124.204C64.8125 124.204 63.9738 123.994 63.2145 123.575C62.4665 123.156 61.8658 122.583 61.4125 121.858C60.9705 121.121 60.7495 120.288 60.7495 119.359C60.7495 118.418 60.9705 117.585 61.4125 116.86C61.8658 116.135 62.4665 115.562 63.2145 115.143C63.9738 114.724 64.8125 114.514 65.7305 114.514C66.6485 114.514 67.4815 114.724 68.2295 115.143C68.9775 115.562 69.5725 116.135 70.0145 116.86C70.4678 117.585 70.6945 118.418 70.6945 119.359C70.6945 120.288 70.4678 121.121 70.0145 121.858C69.5725 122.583 68.9775 123.156 68.2295 123.575C67.4815 123.994 66.6485 124.204 65.7305 124.204ZM65.7305 121.909C66.1951 121.909 66.5975 121.801 66.9375 121.586C67.2888 121.371 67.5608 121.07 67.7535 120.685C67.9575 120.3 68.0595 119.858 68.0595 119.359C68.0595 118.86 67.9575 118.424 67.7535 118.05C67.5608 117.665 67.2888 117.364 66.9375 117.149C66.5975 116.922 66.1951 116.809 65.7305 116.809C65.2658 116.809 64.8578 116.922 64.5065 117.149C64.1551 117.364 63.8775 117.665 63.6735 118.05C63.4808 118.424 63.3845 118.86 63.3845 119.359C63.3845 119.858 63.4808 120.3 63.6735 120.685C63.8775 121.07 64.1551 121.371 64.5065 121.586C64.8578 121.801 65.2658 121.909 65.7305 121.909ZM72.1967 124V114.718H74.5767V116.945L74.4067 116.622C74.6107 115.84 74.9451 115.313 75.4097 115.041C75.8857 114.758 76.4467 114.616 77.0927 114.616H77.6367V116.826H76.8377C76.2144 116.826 75.7101 117.019 75.3247 117.404C74.9394 117.778 74.7467 118.311 74.7467 119.002V124H72.1967ZM82.3923 124.204C81.3723 124.204 80.4827 123.966 79.7233 123.49C78.9753 123.003 78.4653 122.351 78.1933 121.535L80.0633 120.651C80.3013 121.15 80.6243 121.541 81.0323 121.824C81.4403 122.107 81.8937 122.249 82.3923 122.249C82.755 122.249 83.0327 122.175 83.2253 122.028C83.418 121.881 83.5143 121.677 83.5143 121.416C83.5143 121.28 83.4803 121.167 83.4123 121.076C83.3443 120.974 83.2423 120.883 83.1063 120.804C82.9703 120.725 82.8003 120.657 82.5963 120.6L81.0153 120.158C80.256 119.943 79.6723 119.597 79.2643 119.121C78.8563 118.634 78.6523 118.061 78.6523 117.404C78.6523 116.826 78.7997 116.322 79.0943 115.891C79.389 115.46 79.8027 115.126 80.3353 114.888C80.868 114.639 81.48 114.514 82.1713 114.514C83.078 114.514 83.8713 114.729 84.5513 115.16C85.2427 115.579 85.73 116.174 86.0133 116.945L84.1263 117.829C83.9903 117.444 83.741 117.138 83.3783 116.911C83.027 116.673 82.6247 116.554 82.1713 116.554C81.8427 116.554 81.582 116.622 81.3893 116.758C81.208 116.894 81.1173 117.081 81.1173 117.319C81.1173 117.444 81.1513 117.557 81.2193 117.659C81.2873 117.761 81.395 117.852 81.5423 117.931C81.701 118.01 81.8937 118.084 82.1203 118.152L83.5993 118.594C84.37 118.821 84.9593 119.166 85.3673 119.631C85.7753 120.084 85.9793 120.645 85.9793 121.314C85.9793 121.892 85.8263 122.396 85.5203 122.827C85.2257 123.258 84.812 123.598 84.2793 123.847C83.7467 124.085 83.1177 124.204 82.3923 124.204Z" fill="white"/>
<path d="M136 118C135.448 118 135 118.448 135 119C135 119.553 135.448 120 136 120V118ZM153.707 119.708C154.098 119.317 154.098 118.684 153.707 118.293L147.343 111.929C146.953 111.539 146.319 111.539 145.929 111.929C145.538 112.32 145.538 112.953 145.929 113.344L151.586 119L145.929 124.657C145.538 125.048 145.538 125.681 145.929 126.072C146.319 126.462 146.953 126.462 147.343 126.072L153.707 119.708ZM136 119V120H153V119V118H136V119Z" fill="white"/>
<defs>
<filter id="filter0_d_938_9825" x="0" y="36.2625" width="172" height="111" filterUnits="userSpaceOnUse" color-interpolation-filters="sRGB">
<feFlood flood-opacity="0" result="BackgroundImageFix"/>
<feColorMatrix in="SourceAlpha" type="matrix" values="0 0 0 0 0 0 0 0 0 0 0 0 0 0 0 0 0 0 127 0" result="hardAlpha"/>
<feOffset/>
<feGaussianBlur stdDeviation="2"/>
<feComposite in2="hardAlpha" operator="out"/>
<feColorMatrix type="matrix" values="0 0 0 0 0 0 0 0 0 0 0 0 0 0 0 0 0 0 0.25 0"/>
<feBlend mode="normal" in2="BackgroundImageFix" result="effect1_dropShadow_938_9825"/>
<feBlend mode="normal" in="SourceGraphic" in2="effect1_dropShadow_938_9825" result="shape"/>
</filter>
</defs>
</svg>
