<svg width="172" height="148" viewBox="0 0 172 148" fill="none" xmlns="http://www.w3.org/2000/svg">
<g opacity="0.2">
<rect x="4" y="13.0004" width="164" height="130" rx="10" fill="#6D6D6D"/>
<path d="M18.8139 79.3947C16.1553 78.6602 14.584 75.9011 15.3043 73.2319L32.6848 8.83285C33.4051 6.16371 36.1444 4.59534 38.803 5.32981L78.2184 16.2185C80.8771 16.9529 82.4483 19.7121 81.728 22.3812L64.3475 86.7803C63.6272 89.4494 60.888 91.0178 58.2293 90.2833L18.8139 79.3947Z" fill="#979797"/>
<path d="M46.453 56.6841C44.5459 54.6869 44.6138 51.5165 46.6045 49.6027L94.5971 3.46519C96.5879 1.55143 99.7476 1.61905 101.655 3.61623L129.951 33.2504C131.858 35.2476 131.79 38.418 129.799 40.3318L81.8067 86.4693C79.816 88.383 76.6562 88.3154 74.7492 86.3182L46.453 56.6841Z" fill="#B3B6B4"/>
<rect width="76.6257" height="50.9391" rx="5" transform="matrix(0.948091 -0.32164 0.315284 0.947779 75 37.6459)" fill="#979797"/>
<g filter="url(#filter0_d_938_9838)">
<path d="M4 40.2625H48.37C51.5444 40.2625 54.6731 41.018 57.4976 42.4668L74.2478 51.0581C77.0723 52.5069 80.2011 53.2625 83.3754 53.2625H168V133.262C168 138.785 163.523 143.262 158 143.262H14C8.47715 143.262 4 138.785 4 133.262V40.2625Z" fill="#808080"/>
</g>
</g>
<defs>
<filter id="filter0_d_938_9838" x="0" y="36.2625" width="172" height="111" filterUnits="userSpaceOnUse" color-interpolation-filters="sRGB">
<feFlood flood-opacity="0" result="BackgroundImageFix"/>
<feColorMatrix in="SourceAlpha" type="matrix" values="0 0 0 0 0 0 0 0 0 0 0 0 0 0 0 0 0 0 127 0" result="hardAlpha"/>
<feOffset/>
<feGaussianBlur stdDeviation="2"/>
<feComposite in2="hardAlpha" operator="out"/>
<feColorMatrix type="matrix" values="0 0 0 0 0 0 0 0 0 0 0 0 0 0 0 0 0 0 0.25 0"/>
<feBlend mode="normal" in2="BackgroundImageFix" result="effect1_dropShadow_938_9838"/>
<feBlend mode="normal" in="SourceGraphic" in2="effect1_dropShadow_938_9838" result="shape"/>
</filter>
</defs>
</svg>
