<svg width="29" height="32" viewBox="0 0 29 32" fill="none" xmlns="http://www.w3.org/2000/svg">
<path d="M4 30H9.65091C10.2032 30 10.6509 29.5523 10.6509 29V19.9918C10.6509 19.4396 11.0986 18.9918 11.6509 18.9918H17.1966C17.7489 18.9918 18.1966 19.4396 18.1966 19.9918V29C18.1966 29.5523 18.6444 30 19.1966 30H25C26.1046 30 27 29.1046 27 28V11.6908C27 11.0699 26.7117 10.4843 26.2196 10.1057L15.6165 1.94709C14.8923 1.38984 13.8825 1.39431 13.1633 1.95796L2.76636 10.1056C2.28259 10.4847 2 11.0652 2 11.6798V28C2 29.1046 2.89543 30 4 30Z" stroke="#1D1D1D" stroke-width="2.5"/>
</svg>
