<svg width="28" height="28" viewBox="0 0 28 28" fill="none" xmlns="http://www.w3.org/2000/svg">
<path d="M6.69127 24.5625C3.21343 22.0759 0.868922 17.9705 1.00568 13.5941C1.22995 6.41768 7.45707 0.788928 14.4059 1.00608C21.3547 1.22323 26.7768 6.64533 26.9939 13.5941C27.2111 20.5429 21.5823 26.7701 14.4059 26.9943C11.6057 27.0818 8.91652 26.1535 6.69127 24.5625ZM6.69127 24.5625C6.69127 24.5625 6.69127 23.3397 6.69127 20.0912C6.69127 17.7125 8.77932 15.2184 11.158 15.2184C14.4065 15.2184 14.4065 15.2184 14.4065 15.2184M21.3097 24.5625C21.3097 24.5625 21.3097 24.8084 21.3097 20.7477C21.3097 18.3873 19.6131 15.2184 17.249 15.2184C14.8848 15.2184 14.4065 15.2184 14.4065 15.2184M14.4065 15.2184C16.3072 15.0321 18.2315 13.0598 18.0611 11.1577C17.8708 9.03258 16.5288 7.31005 14.4059 7.09704C12.0604 6.8617 9.9398 8.80045 9.9398 11.1577C9.9398 13.5941 12.5059 15.4046 14.4065 15.2184Z" stroke="#1D1D1D" stroke-width="2"/>
</svg>
