<svg width="172" height="148" viewBox="0 0 172 148" fill="none" xmlns="http://www.w3.org/2000/svg">
<rect x="4" y="13.0004" width="164" height="130" rx="10" fill="#40BD93"/>
<rect width="76.6257" height="50.9391" rx="5" transform="matrix(0.260867 -0.96658 0.962781 0.265972 14 78.0648)" fill="#71D7B5"/>
<path d="M46.453 56.6841C44.5459 54.6869 44.6138 51.5165 46.6045 49.6027L94.5971 3.46519C96.5879 1.55143 99.7476 1.61905 101.655 3.61623L129.951 33.2504C131.858 35.2476 131.79 38.418 129.799 40.3318L81.8067 86.4693C79.816 88.383 76.6562 88.3154 74.7492 86.3182L46.453 56.6841Z" fill="#58CBA5"/>
<rect width="76.6257" height="50.9391" rx="5" transform="matrix(0.948091 -0.32164 0.315284 0.947779 75 37.6459)" fill="#71D7B5"/>
<path d="M127.52 46.8115C128.432 45.7052 127.925 44.0287 126.555 43.6206L115.023 40.1843C113.497 39.7295 112.074 41.1617 112.536 42.6886L116.392 55.4401C116.853 56.967 118.827 57.3597 119.844 56.1267L127.52 46.8115Z" fill="white"/>
<g filter="url(#filter0_d_938_391)">
<path d="M4 40.2625H48.37C51.5444 40.2625 54.6731 41.018 57.4976 42.4668L74.2478 51.0581C77.0723 52.5069 80.2011 53.2625 83.3754 53.2625H168V133.262C168 138.785 163.523 143.262 158 143.262H14C8.47715 143.262 4 138.785 4 133.262V40.2625Z" fill="#238262"/>
</g>
<path d="M22.502 124L19.187 111.335H22.043L24.542 121.943H23.777L26.412 111.335H29.132L31.767 121.943H31.002L33.501 111.335H36.357L33.042 124H29.982L27.33 113.8H28.214L25.562 124H22.502ZM41.4392 124.204C40.4532 124.204 39.5975 123.989 38.8722 123.558C38.1469 123.116 37.5859 122.527 37.1892 121.79C36.7925 121.054 36.5942 120.238 36.5942 119.342C36.5942 118.413 36.7982 117.586 37.2062 116.86C37.6255 116.135 38.1865 115.563 38.8892 115.143C39.5919 114.724 40.3852 114.514 41.2692 114.514C42.0059 114.514 42.6575 114.633 43.2242 114.871C43.7909 115.098 44.2669 115.421 44.6522 115.84C45.0489 116.26 45.3492 116.747 45.5532 117.302C45.7572 117.846 45.8592 118.441 45.8592 119.087C45.8592 119.269 45.8479 119.45 45.8252 119.631C45.8139 119.801 45.7855 119.949 45.7402 120.073H38.7872V118.203H44.2952L43.0882 119.087C43.2015 118.6 43.1959 118.169 43.0712 117.795C42.9465 117.41 42.7255 117.11 42.4082 116.894C42.1022 116.668 41.7225 116.554 41.2692 116.554C40.8272 116.554 40.4475 116.662 40.1302 116.877C39.8129 117.093 39.5749 117.41 39.4162 117.829C39.2575 118.249 39.1952 118.759 39.2292 119.359C39.1839 119.881 39.2462 120.34 39.4162 120.736C39.5862 121.133 39.8469 121.445 40.1982 121.671C40.5495 121.887 40.9745 121.994 41.4732 121.994C41.9265 121.994 42.3119 121.904 42.6292 121.722C42.9579 121.541 43.2129 121.292 43.3942 120.974L45.4342 121.943C45.2529 122.397 44.9639 122.793 44.5672 123.133C44.1819 123.473 43.7229 123.74 43.1902 123.932C42.6575 124.114 42.0739 124.204 41.4392 124.204ZM52.5628 124.204C51.9281 124.204 51.3388 124.091 50.7948 123.864C50.2621 123.626 49.8314 123.281 49.5028 122.827L49.7408 122.3V124H47.3608V111.131H49.9108V116.486L49.5198 115.976C49.8258 115.512 50.2394 115.155 50.7608 114.905C51.2934 114.645 51.8998 114.514 52.5798 114.514C53.4638 114.514 54.2628 114.73 54.9768 115.16C55.6908 115.591 56.2574 116.175 56.6768 116.911C57.0961 117.637 57.3058 118.453 57.3058 119.359C57.3058 120.255 57.0961 121.071 56.6768 121.807C56.2688 122.544 55.7078 123.128 54.9938 123.558C54.2798 123.989 53.4694 124.204 52.5628 124.204ZM52.2568 121.909C52.7328 121.909 53.1521 121.802 53.5148 121.586C53.8774 121.371 54.1608 121.071 54.3648 120.685C54.5688 120.3 54.6708 119.858 54.6708 119.359C54.6708 118.861 54.5688 118.424 54.3648 118.05C54.1608 117.665 53.8774 117.365 53.5148 117.149C53.1521 116.923 52.7328 116.809 52.2568 116.809C51.8034 116.809 51.3954 116.917 51.0328 117.132C50.6814 117.348 50.4038 117.648 50.1998 118.033C50.0071 118.419 49.9108 118.861 49.9108 119.359C49.9108 119.858 50.0071 120.3 50.1998 120.685C50.4038 121.071 50.6814 121.371 51.0328 121.586C51.3954 121.802 51.8034 121.909 52.2568 121.909ZM58.7993 124V114.718H61.3493V124H58.7993ZM58.7993 113.885V111.335H61.3493V113.885H58.7993ZM63.2153 124V114.718H65.5953V116.554L65.4593 116.146C65.6746 115.591 66.0203 115.183 66.4963 114.922C66.9836 114.65 67.5503 114.514 68.1963 114.514C68.8989 114.514 69.5109 114.662 70.0323 114.956C70.5649 115.251 70.9786 115.665 71.2733 116.197C71.5679 116.719 71.7153 117.331 71.7153 118.033V124H69.1653V118.577C69.1653 118.215 69.0916 117.903 68.9443 117.642C68.8083 117.382 68.6099 117.178 68.3493 117.03C68.0999 116.883 67.8053 116.809 67.4653 116.809C67.1366 116.809 66.8419 116.883 66.5813 117.03C66.3206 117.178 66.1166 117.382 65.9693 117.642C65.8333 117.903 65.7653 118.215 65.7653 118.577V124H63.2153ZM76.265 124.204C75.5964 124.204 75.0184 124.097 74.531 123.881C74.0437 123.666 73.6697 123.36 73.409 122.963C73.1484 122.555 73.018 122.074 73.018 121.518C73.018 120.997 73.137 120.538 73.375 120.141C73.613 119.733 73.9757 119.393 74.463 119.121C74.9617 118.849 75.5794 118.657 76.316 118.543L79.155 118.084V119.954L76.775 120.379C76.4124 120.447 76.1347 120.566 75.942 120.736C75.7494 120.895 75.653 121.127 75.653 121.433C75.653 121.717 75.7607 121.938 75.976 122.096C76.1914 122.255 76.4577 122.334 76.775 122.334C77.1944 122.334 77.5627 122.244 77.88 122.062C78.1974 121.881 78.441 121.637 78.611 121.331C78.7924 121.014 78.883 120.668 78.883 120.294V117.88C78.883 117.529 78.7414 117.234 78.458 116.996C78.186 116.758 77.812 116.639 77.336 116.639C76.8827 116.639 76.4804 116.764 76.129 117.013C75.789 117.263 75.5397 117.591 75.381 117.999L73.341 117.03C73.5224 116.509 73.8114 116.061 74.208 115.687C74.6047 115.313 75.0807 115.024 75.636 114.82C76.1914 114.616 76.7977 114.514 77.455 114.514C78.237 114.514 78.9284 114.656 79.529 114.939C80.1297 115.223 80.5944 115.619 80.923 116.129C81.263 116.628 81.433 117.212 81.433 117.88V124H79.053V122.504L79.631 122.402C79.359 122.81 79.0587 123.15 78.73 123.422C78.4014 123.683 78.033 123.876 77.625 124C77.217 124.136 76.7637 124.204 76.265 124.204ZM83.3032 124V114.718H85.6832V116.945L85.5132 116.622C85.7172 115.84 86.0515 115.313 86.5162 115.041C86.9922 114.758 87.5532 114.616 88.1992 114.616H88.7432V116.826H87.9442C87.3208 116.826 86.8165 117.019 86.4312 117.404C86.0458 117.778 85.8532 118.311 85.8532 119.002V124H83.3032ZM93.4988 124.204C92.4788 124.204 91.5891 123.966 90.8298 123.49C90.0818 123.003 89.5718 122.351 89.2998 121.535L91.1698 120.651C91.4078 121.15 91.7308 121.541 92.1388 121.824C92.5468 122.108 93.0001 122.249 93.4988 122.249C93.8614 122.249 94.1391 122.176 94.3318 122.028C94.5244 121.881 94.6208 121.677 94.6208 121.416C94.6208 121.28 94.5868 121.167 94.5188 121.076C94.4508 120.974 94.3488 120.884 94.2128 120.804C94.0768 120.725 93.9068 120.657 93.7028 120.6L92.1218 120.158C91.3624 119.943 90.7788 119.597 90.3708 119.121C89.9628 118.634 89.7588 118.062 89.7588 117.404C89.7588 116.826 89.9061 116.322 90.2008 115.891C90.4954 115.461 90.9091 115.126 91.4418 114.888C91.9744 114.639 92.5864 114.514 93.2778 114.514C94.1844 114.514 94.9778 114.73 95.6578 115.16C96.3491 115.58 96.8364 116.175 97.1198 116.945L95.2328 117.829C95.0968 117.444 94.8474 117.138 94.4848 116.911C94.1334 116.673 93.7311 116.554 93.2778 116.554C92.9491 116.554 92.6884 116.622 92.4958 116.758C92.3144 116.894 92.2238 117.081 92.2238 117.319C92.2238 117.444 92.2578 117.557 92.3258 117.659C92.3938 117.761 92.5014 117.852 92.6488 117.931C92.8074 118.011 93.0001 118.084 93.2268 118.152L94.7058 118.594C95.4764 118.821 96.0658 119.167 96.4738 119.631C96.8818 120.085 97.0858 120.646 97.0858 121.314C97.0858 121.892 96.9328 122.397 96.6268 122.827C96.3321 123.258 95.9184 123.598 95.3858 123.847C94.8531 124.085 94.2241 124.204 93.4988 124.204Z" fill="white"/>
<path d="M136 118C135.448 118 135 118.448 135 119C135 119.553 135.448 120 136 120V118ZM153.707 119.708C154.098 119.317 154.098 118.684 153.707 118.293L147.343 111.929C146.953 111.539 146.319 111.539 145.929 111.929C145.538 112.32 145.538 112.953 145.929 113.344L151.586 119L145.929 124.657C145.538 125.048 145.538 125.681 145.929 126.072C146.319 126.462 146.953 126.462 147.343 126.072L153.707 119.708ZM136 119V120H153V119V118H136V119Z" fill="white"/>
<defs>
<filter id="filter0_d_938_391" x="0" y="36.2625" width="172" height="111" filterUnits="userSpaceOnUse" color-interpolation-filters="sRGB">
<feFlood flood-opacity="0" result="BackgroundImageFix"/>
<feColorMatrix in="SourceAlpha" type="matrix" values="0 0 0 0 0 0 0 0 0 0 0 0 0 0 0 0 0 0 127 0" result="hardAlpha"/>
<feOffset/>
<feGaussianBlur stdDeviation="2"/>
<feComposite in2="hardAlpha" operator="out"/>
<feColorMatrix type="matrix" values="0 0 0 0 0 0 0 0 0 0 0 0 0 0 0 0 0 0 0.25 0"/>
<feBlend mode="normal" in2="BackgroundImageFix" result="effect1_dropShadow_938_391"/>
<feBlend mode="normal" in="SourceGraphic" in2="effect1_dropShadow_938_391" result="shape"/>
</filter>
</defs>
</svg>
