<svg width="34" height="42" viewBox="0 0 34 42" fill="none" xmlns="http://www.w3.org/2000/svg">
<path d="M33.8127 37.7673C33.8442 37.8102 33.8667 37.8598 33.8786 37.9125C33.8904 37.9653 33.8914 38.0201 33.8814 38.0733C33.8714 38.1264 33.8507 38.1768 33.8207 38.2209C33.7906 38.2651 33.7519 38.302 33.7072 38.3293C33.6208 38.3908 33.5153 38.4157 33.412 38.3989C33.3088 38.3821 33.2154 38.325 33.1509 38.239C33.1509 38.239 30.8683 34.8165 29.1995 34.1441C28.7488 33.9434 28.5282 34.1441 27.972 34.6359C27.1184 35.4388 25.814 36.6432 22.371 36.3822C22.3202 36.381 22.2701 36.369 22.2239 36.3469C22.1777 36.3247 22.1362 36.293 22.1021 36.2535C22.068 36.2141 22.0419 36.1678 22.0255 36.1174C22.0091 36.0671 22.0026 36.0137 22.0065 35.9607C22.0139 35.8471 22.063 35.7409 22.1434 35.6642C22.2238 35.5876 22.3294 35.5463 22.4381 35.5492C25.5359 35.78 26.6293 34.7664 27.4445 34.0036C28.0199 33.4717 28.557 32.9999 29.4969 33.3612C31.415 34.1441 33.7072 37.6167 33.8127 37.7673ZM9.73049 22.1706C8.902 21.9852 8.05075 21.9378 7.20814 22.0301C6.97812 22.0426 6.74766 22.0426 6.51764 22.0301C6.41206 22.0296 6.31016 22.0706 6.23204 22.1449C6.15392 22.2192 6.10525 22.3215 6.09565 22.4315C6.08765 22.5418 6.12137 22.6509 6.18954 22.7354C6.25772 22.8199 6.35489 22.8729 6.4601 22.8832C6.72838 22.9007 6.99741 22.9007 7.26568 22.8832C7.27443 22.8884 7.28438 22.8912 7.29448 22.8912C7.30459 22.8912 7.31448 22.8884 7.32323 22.8832C7.3317 23.11 7.39076 23.3316 7.49568 23.5302C7.60059 23.7289 7.74844 23.8991 7.92744 24.0273C8.44704 24.3641 9.03282 24.5734 9.64076 24.6395C10.2487 24.7055 10.863 24.6266 11.4377 24.4087C11.6812 24.348 11.9062 24.2243 12.0922 24.0489C12.2782 23.8736 12.4192 23.6522 12.5022 23.4051C12.5135 23.3524 12.5148 23.2978 12.506 23.2446C12.4972 23.1913 12.4785 23.1404 12.4509 23.0947C12.4233 23.0491 12.3874 23.0096 12.3452 22.9784C12.303 22.9473 12.2553 22.9251 12.2049 22.9133C12.1545 22.9014 12.1024 22.9 12.0515 22.9093C12.0007 22.9185 11.952 22.9381 11.9084 22.967C11.8647 22.9959 11.8269 23.0335 11.7972 23.0777C11.7674 23.1218 11.7463 23.1717 11.735 23.2244C11.6742 23.3363 11.5915 23.4334 11.4923 23.5096C11.3932 23.5857 11.2797 23.639 11.1595 23.666C10.7128 23.8355 10.2363 23.9018 9.76281 23.8602C9.2893 23.8186 8.83003 23.6702 8.41658 23.4251C8.32927 23.3644 8.25571 23.2844 8.20104 23.1908C8.14637 23.0972 8.11189 22.9922 8.10007 22.8832C8.57992 22.9076 9.05753 22.9679 9.52913 23.0638C9.76368 23.1093 10.0007 23.1395 10.2388 23.1542C10.4992 23.1286 10.7563 23.0747 11.0061 22.9936C11.5932 22.8274 12.2017 22.7596 12.8091 22.7928C12.902 22.8419 13.0097 22.8504 13.1085 22.8165C13.2074 22.7827 13.2894 22.7092 13.3366 22.6122C13.3642 22.5651 13.3816 22.5122 13.3878 22.4574C13.3939 22.4025 13.3885 22.3469 13.3721 22.2944C13.3557 22.2419 13.3286 22.1938 13.2926 22.1534C13.2567 22.1129 13.2128 22.0811 13.164 22.0602C12.4003 21.8755 11.6023 21.9207 10.8622 22.1906C10.5841 22.2609 10.3059 22.3011 10.2196 22.3312C10.039 22.3123 9.8597 22.2821 9.68255 22.2408M9.68255 21.0063C9.06853 20.7765 8.4115 20.7009 7.76442 20.7855C7.6633 20.8029 7.57262 20.8608 7.51171 20.947C7.45081 21.0333 7.42447 21.141 7.43831 21.2472C7.44755 21.302 7.46712 21.3544 7.49579 21.4012C7.52446 21.4481 7.56168 21.4886 7.60537 21.5203C7.64906 21.552 7.69832 21.5744 7.75031 21.5861C7.8023 21.5978 7.85601 21.5986 7.9083 21.5884C8.4445 21.5535 8.98202 21.6285 9.49073 21.8092C9.54168 21.8276 9.59577 21.8344 9.64942 21.8294C9.70308 21.8244 9.7551 21.8076 9.80214 21.7802C9.84919 21.7527 9.89016 21.7152 9.92244 21.6701C9.95471 21.6249 9.97757 21.5732 9.98946 21.5182C10.0161 21.4118 10.0019 21.2987 9.94995 21.203C9.89798 21.1074 9.81231 21.0368 9.71129 21.0063M11.0732 21.6989C11.5048 21.5592 11.9547 21.4914 12.4063 21.4981C12.5099 21.4982 12.6095 21.4566 12.6846 21.3819C12.7596 21.3071 12.8042 21.205 12.8091 21.0967C12.8117 21.0418 12.8037 20.9869 12.7857 20.9353C12.7677 20.8837 12.74 20.8365 12.7043 20.7962C12.6685 20.756 12.6254 20.7237 12.5775 20.7012C12.5297 20.6786 12.478 20.6664 12.4255 20.6651C11.8731 20.6639 11.3237 20.7484 10.795 20.916C10.6992 20.9603 10.6226 21.0404 10.5801 21.1406C10.5376 21.2407 10.5321 21.3539 10.5649 21.458C10.5819 21.5097 10.6088 21.5572 10.644 21.5976C10.6791 21.6381 10.7218 21.6706 10.7694 21.6931C10.817 21.7157 10.8685 21.7278 10.9207 21.7288C10.973 21.7298 11.0249 21.7196 11.0732 21.6989ZM16.5974 21.0465C17.2168 19.1431 17.1313 17.0658 16.3577 15.2253C16.3388 15.1754 16.3104 15.13 16.2744 15.0917C16.2384 15.0534 16.1955 15.0231 16.1481 15.0025C16.1007 14.9819 16.0499 14.9715 15.9986 14.9718C15.9472 14.9722 15.8965 14.9833 15.8493 15.0045C15.7526 15.0527 15.6769 15.1375 15.6377 15.2419C15.5986 15.3463 15.5988 15.4624 15.6384 15.5666C16.3074 17.2122 16.3824 19.0562 15.8493 20.7554C14.5642 24.1377 13.538 26.2253 12.742 26.8676C11.7829 27.6806 8.51248 28.4133 5.53937 26.9178C5.48183 26.8677 5.39551 26.8275 5.29001 26.7573C4.96209 26.5543 4.60629 26.4053 4.23506 26.3156C4.18462 26.3024 4.13211 26.2999 4.08075 26.3085C4.02939 26.3171 3.98024 26.3366 3.93629 26.3657C3.89233 26.3948 3.85449 26.4329 3.82507 26.4778C3.79564 26.5227 3.77525 26.5734 3.76512 26.6268C3.74636 26.7354 3.76625 26.8474 3.82103 26.9417C3.8758 27.036 3.96167 27.106 4.06243 27.1386C4.35985 27.2029 4.64296 27.3255 4.89682 27.4999L5.24207 27.6806C8.7043 29.4269 12.2624 28.4133 13.3078 27.52C14.3532 26.6268 15.2739 24.6998 16.6454 21.0465M13.8641 15.145C14.0506 15.1372 14.2267 15.0527 14.3542 14.9099C14.4817 14.7672 14.5502 14.5776 14.545 14.3823C14.5481 14.222 14.5046 14.0645 14.4203 13.9306C14.7468 14.01 15.0673 14.114 15.3794 14.2418C15.4233 14.2687 15.4723 14.2855 15.5229 14.2909C15.5736 14.2963 15.6248 14.2902 15.673 14.273C15.7213 14.2559 15.7654 14.2281 15.8024 14.1915C15.8394 14.155 15.8685 14.1105 15.8877 14.0611C15.9137 14.0136 15.9299 13.9609 15.9352 13.9065C15.9405 13.852 15.9348 13.797 15.9185 13.745C15.9023 13.6929 15.8757 13.6451 15.8407 13.6045C15.8056 13.5638 15.7629 13.5313 15.7151 13.5091C14.8942 13.0846 13.9553 12.9814 13.068 13.218C12.8023 13.3264 12.5597 13.4886 12.3539 13.6952C12.1482 13.9019 11.9835 14.149 11.8692 14.4224C11.8296 14.5266 11.8294 14.6427 11.8686 14.7471C11.9077 14.8515 11.9834 14.9363 12.0802 14.9845C12.128 15.0059 12.1795 15.0171 12.2315 15.0176C12.2835 15.0181 12.335 15.0077 12.3832 14.9872C12.4314 14.9667 12.4752 14.9363 12.512 14.898C12.5489 14.8596 12.5782 14.8139 12.5981 14.7637C12.7108 14.4569 12.9301 14.206 13.2119 14.0611C13.1727 14.1631 13.1531 14.2723 13.1544 14.3823C13.149 14.5743 13.215 14.761 13.3384 14.9033C13.4617 15.0455 13.633 15.1321 13.8161 15.145M26.1785 33.7226C26.5683 33.4109 26.8291 32.9547 26.9074 32.4479C26.9074 32.2472 26.9074 32.0866 26.9074 31.926C26.9408 31.5733 26.8657 31.2187 26.6932 30.9136C26.5208 30.6086 26.2598 30.3691 25.9484 30.2299C25.7374 30.0894 25.6222 30.0291 25.6222 29.8485C25.6403 29.6842 25.6858 29.5246 25.7565 29.3768C25.8399 29.125 25.882 28.8603 25.8812 28.5939C25.8888 28.2993 25.8297 28.0069 25.7086 27.7408C25.3229 27.044 24.7397 26.4898 24.0398 26.1551C24.6149 25.2612 24.9464 24.2203 24.9988 23.1441C25.008 22.977 25.008 22.8094 24.9988 22.6423C24.888 21.3804 24.3054 20.2153 23.378 19.4005C22.9081 18.9288 22.6683 18.6879 22.6683 18.166C22.6683 17.875 22.6683 17.5137 22.7546 17.1624C22.7546 16.5803 22.8793 15.9279 22.8793 15.2655C22.9476 14.6166 22.8556 13.9603 22.6121 13.3593C22.3686 12.7583 21.9818 12.2328 21.4887 11.833C21.7676 11.2491 21.9214 10.6086 21.9394 9.95617C21.9503 9.58586 21.8781 9.21806 21.7284 8.88229C21.5569 8.54173 21.3145 8.24584 21.019 8.01653C20.7235 7.78722 20.3825 7.63035 20.0213 7.55747C19.8681 7.12428 19.7965 6.66419 19.8103 6.20254C19.8103 5.95162 19.8103 5.69069 19.724 5.39963C19.6436 5.06586 19.4924 4.75534 19.2815 4.49121C19.0707 4.22708 18.8056 4.01612 18.506 3.87407C18.1445 3.69548 17.7426 3.62599 17.3455 3.67336C17.1345 1.94708 16.5783 1.66605 15.7439 1.56569C15.1762 1.52174 14.6437 1.26098 14.2477 0.833014C14.0563 0.585014 13.8112 0.388304 13.5326 0.259151C13.2541 0.129998 12.9502 0.0721259 12.6461 0.0903246C12.2831 0.138421 11.9458 0.311412 11.687 0.582102C11.3147 0.229286 10.8365 0.0234353 10.3347 0C10.058 0.0116613 9.78704 0.0858559 9.54037 0.217526C9.29369 0.349197 9.07717 0.535201 8.90571 0.762752C8.84011 0.844201 8.80415 0.9473 8.80415 1.05382C8.80415 1.16034 8.84011 1.26344 8.90571 1.34488C8.99038 1.41762 9.09876 1.45303 9.20794 1.44366C9.31711 1.4343 9.41851 1.38087 9.49073 1.29468C9.58008 1.16067 9.69722 1.04954 9.8334 0.969589C9.96959 0.88964 10.1213 0.842956 10.2772 0.833014C10.7044 0.903244 11.0965 1.12252 11.3897 1.45527C11.4274 1.50622 11.4777 1.54537 11.5352 1.56838C11.5928 1.5914 11.6552 1.59739 11.7158 1.58575C11.7813 1.58717 11.8459 1.56907 11.9019 1.53353C11.958 1.49798 12.0032 1.44648 12.0323 1.38504C12.1015 1.26343 12.1946 1.15852 12.3054 1.07722C12.4161 0.99592 12.542 0.940079 12.6748 0.913323C12.953 0.913323 13.2503 1.05383 13.6339 1.41515C14.1469 1.96644 14.8228 2.32013 15.552 2.4188C15.8973 2.4188 16.0604 2.50911 16.1755 2.65966C16.4356 3.15415 16.5678 3.71113 16.559 4.27552C16.5602 4.34093 16.5787 4.40472 16.6126 4.45969C16.6465 4.51466 16.6944 4.55865 16.7509 4.58668C16.8081 4.62515 16.8747 4.64558 16.9427 4.64558C17.0107 4.64558 17.0773 4.62515 17.1345 4.58668C17.2825 4.50577 17.4471 4.46349 17.6141 4.46349C17.7811 4.46349 17.9456 4.50577 18.0936 4.58668C18.2812 4.66655 18.4488 4.7904 18.5835 4.94874C18.7182 5.10709 18.8164 5.29567 18.8704 5.49997C18.8704 5.75088 18.9279 5.97169 18.9471 6.2226C18.9677 6.81226 19.1083 7.39054 19.3596 7.91877C19.383 7.97811 19.4211 8.02985 19.47 8.06866C19.5189 8.10747 19.5767 8.13195 19.6377 8.13957C19.914 8.17586 20.1788 8.27798 20.4115 8.43805C20.6443 8.59812 20.8388 8.81188 20.9803 9.06294C21.0982 9.49251 21.1232 9.94416 21.0536 10.3851C20.9839 10.826 20.8213 11.2452 20.5775 11.6122C20.5559 11.6662 20.5448 11.7242 20.5448 11.7828C20.5448 11.8414 20.5559 11.8994 20.5775 11.9535C20.5898 12.0093 20.6157 12.0608 20.6527 12.103C20.6897 12.1452 20.7365 12.1767 20.7886 12.1943C22.3327 12.937 22.112 15.1049 21.9394 16.8713C21.9394 17.2728 21.8627 17.6742 21.8339 17.9954C21.8435 18.3675 21.9351 18.7322 22.1014 19.0613C22.2678 19.3903 22.5044 19.6747 22.793 19.8923C23.1932 20.228 23.5232 20.6462 23.7625 21.121C24.0017 21.5958 24.1451 22.1171 24.1836 22.6523C24.2055 23.8565 23.8332 25.0322 23.1287 25.9844C23.0896 26.0381 23.0617 26.0998 23.0468 26.1655C23.0319 26.2312 23.0304 26.2995 23.0424 26.3658C23.0919 26.4878 23.1847 26.585 23.3013 26.6368C23.9975 26.8854 24.5926 27.3736 24.9893 28.0218C25.0615 28.1783 25.099 28.3499 25.099 28.5237C25.099 28.6974 25.0615 28.869 24.9893 29.0255C24.5577 30.1897 24.9892 30.5711 25.5455 30.8822C26.1018 31.1934 26.2073 31.2837 26.073 32.2773C26.0586 32.4244 26.0133 32.5664 25.9403 32.693C25.8674 32.8197 25.7686 32.9279 25.651 33.01C24.5385 33.8831 21.7093 33.7025 20.7118 33.5519C20.6471 33.5476 20.5823 33.5589 20.5224 33.585C20.4625 33.6111 20.4092 33.6513 20.3666 33.7025C20.3222 33.7488 20.2907 33.807 20.2755 33.8706C20.2603 33.9343 20.2619 34.0011 20.2802 34.0638C20.3372 34.2337 20.3495 34.4166 20.3158 34.5931C20.282 34.7697 20.2035 34.9336 20.0884 35.0675C19.8345 35.2766 19.5388 35.4231 19.2234 35.4961C18.9079 35.5691 18.5807 35.5666 18.2662 35.489C18.1977 35.4742 18.1268 35.4775 18.0599 35.4985C17.9929 35.5196 17.932 35.5577 17.8826 35.6094C17.839 35.6605 17.8083 35.7221 17.7932 35.7887C17.7782 35.8553 17.7792 35.9247 17.7963 35.9908C17.9497 36.6833 17.7962 37.155 17.4606 37.3758C17.2693 37.4848 17.055 37.5418 16.8372 37.5418C16.6194 37.5418 16.4051 37.4848 16.2138 37.3758C16.0981 37.243 16.0186 37.0801 15.9836 36.9041C15.9586 36.7415 15.8991 36.5867 15.8095 36.4513C15.7199 36.3158 15.6024 36.2031 15.4657 36.1213C15.3283 36.0574 15.1797 36.0243 15.0294 36.0243C14.879 36.0243 14.7303 36.0574 14.593 36.1213C13.9888 36.3722 13.7298 36.302 13.6339 36.2317C13.5559 36.1588 13.494 36.0689 13.4526 35.9683C13.4112 35.8678 13.3912 35.759 13.3941 35.6496C13.3887 35.5659 13.3563 35.4867 13.3024 35.4247C13.2484 35.3628 13.1759 35.3217 13.0968 35.3083C13.0297 35.3083 12.3391 35.1076 12.2336 33.8932C12.2832 32.8337 12.7315 31.8378 13.4805 31.1231L13.6722 30.8722L13.7298 30.7819C14.0628 30.4468 14.2781 30.0039 14.3408 29.5249C14.4035 29.0458 14.3098 28.5587 14.0751 28.1423C14.0149 28.051 13.9227 27.9882 13.8186 27.9676C13.7145 27.9469 13.6068 27.97 13.5188 28.0319C13.4601 28.0623 13.4109 28.1097 13.3769 28.1683C13.343 28.2269 13.3256 28.2945 13.327 28.3631C13.3223 28.4428 13.3463 28.5216 13.3941 28.5839C13.5099 28.7734 13.576 28.9915 13.586 29.2162C13.5346 29.5943 13.3701 29.9457 13.116 30.2198L13.0297 30.3302L12.8763 30.5109C12.0529 31.3494 11.5399 32.4658 11.4281 33.6623C11.4281 33.7527 11.4281 33.8229 11.4281 33.9132C11.4212 34.3423 11.5324 34.7644 11.7484 35.1291C11.9643 35.4939 12.276 35.7861 12.6461 35.9707C12.67 36.1601 12.7319 36.3421 12.8278 36.5047C12.9237 36.6673 13.0513 36.8068 13.2023 36.9142C13.4675 37.0349 13.7554 37.0912 14.0444 37.0791C14.3334 37.0669 14.616 36.9865 14.8711 36.8439C14.9474 36.8319 15.025 36.8319 15.1013 36.8439C15.1452 36.9384 15.1836 37.0356 15.2164 37.135C15.2904 37.4355 15.4355 37.7116 15.6384 37.9379C15.9577 38.173 16.3336 38.3099 16.7235 38.3329C17.1133 38.356 17.5016 38.2643 17.8442 38.0684C18.0987 37.9116 18.3068 37.6843 18.4456 37.4116C18.5844 37.1388 18.6485 36.8312 18.6307 36.5227C18.6396 36.4629 18.6396 36.4019 18.6307 36.3421C18.9982 36.3758 19.3683 36.33 19.7182 36.2074C20.068 36.0848 20.3899 35.8881 20.6639 35.6295C20.9582 35.3129 21.1203 34.8869 21.1146 34.4452C22.2271 34.5556 24.855 34.6861 26.1401 33.6623M5.88463 13.0173C5.35803 12.9546 4.82526 13.0496 4.34821 13.2913C3.87116 13.5329 3.4694 13.9112 3.18965 14.3823C3.14628 14.4838 3.14203 14.5989 3.17777 14.7036C3.2135 14.8083 3.28647 14.8945 3.38147 14.9443C3.42908 14.9695 3.48112 14.9843 3.53437 14.9878C3.58762 14.9913 3.64095 14.9834 3.69119 14.9646C3.74144 14.9459 3.7875 14.9166 3.82659 14.8786C3.86567 14.8406 3.89697 14.7946 3.91855 14.7436C4.08019 14.4261 4.34581 14.1802 4.66665 14.0511C4.65628 14.1243 4.65628 14.1987 4.66665 14.2719C4.66146 14.4725 4.73204 14.6672 4.8631 14.8137C4.99416 14.9603 5.1751 15.0469 5.36675 15.0547C5.55925 15.0469 5.74121 14.9606 5.8738 14.8144C6.00638 14.6681 6.0791 14.4735 6.07645 14.2719C6.07121 14.125 6.03521 13.9811 5.97097 13.8503C6.26715 13.8588 6.55432 13.9586 6.79657 14.1371C7.03882 14.3157 7.22537 14.565 7.33283 14.854C7.3717 14.9583 7.44622 15.0438 7.54192 15.0939C7.63761 15.1439 7.74769 15.155 7.85076 15.125C7.95044 15.0843 8.03208 15.0063 8.07993 14.9062C8.12778 14.806 8.13838 14.6909 8.10967 14.583C8.07538 14.5072 8.03696 14.4334 7.99458 14.3622C8.23844 13.9643 8.34395 13.4906 8.2933 13.0208C8.24265 12.551 8.03894 12.1139 7.71648 11.7828C6.75741 10.6487 4.89681 11.1204 3.5733 11.4516C3.52259 11.4655 3.47503 11.4899 3.43345 11.5234C3.39188 11.5568 3.3571 11.5986 3.33119 11.6462C3.30528 11.6939 3.28874 11.7466 3.28255 11.801C3.27635 11.8555 3.28069 11.9107 3.29519 11.9635C3.30544 12.0171 3.32579 12.068 3.35507 12.1133C3.38436 12.1586 3.42195 12.1974 3.46571 12.2273C3.50946 12.2572 3.55848 12.2776 3.60988 12.2875C3.66129 12.2973 3.71408 12.2964 3.76512 12.2846C4.89682 11.9635 6.46006 11.5821 7.141 12.3649C7.3015 12.5216 7.41705 12.722 7.47466 12.9437C7.53227 13.1653 7.52966 13.3994 7.46711 13.6195C7.01195 13.269 6.46824 13.0665 5.90383 13.0374M14.5354 37.8476C14.4847 37.8577 14.4366 37.8791 14.3944 37.9102C14.3522 37.9412 14.3168 37.9814 14.2905 38.0279C14.2642 38.0744 14.2476 38.1262 14.2419 38.1799C14.2362 38.2336 14.2415 38.2879 14.2573 38.3393C14.5738 39.7444 14.5355 40.3467 14.0847 40.5273C13.2024 40.9789 10.6416 41.2198 7.55339 41.1797C5.70748 41.2392 3.86305 41.0195 2.07716 40.5273C3.20741 37.1774 3.99815 33.7125 4.43642 30.1897L4.54197 29.2965C5.35206 29.6081 6.18207 29.8596 7.02592 30.0492C7.08732 30.3595 7.11629 30.6758 7.11226 30.9927C7.0826 31.96 7.00255 32.9249 6.87249 33.8831C6.67323 35.4778 6.55798 37.0827 6.52724 38.6906C6.52724 39.072 6.52723 39.4333 6.57518 39.7946C6.57368 39.8495 6.58319 39.9041 6.60316 39.9549C6.62314 40.0056 6.6531 40.0514 6.69109 40.0893C6.72907 40.1271 6.77425 40.1562 6.82367 40.1746C6.8731 40.193 6.92567 40.2003 6.97798 40.1961C7.08313 40.1909 7.18216 40.1428 7.25386 40.0621C7.32556 39.9815 7.36425 39.8747 7.36163 39.7645C7.30229 37.8352 7.40499 35.9041 7.66853 33.9936C7.87953 32.0465 8.05216 30.5209 7.66853 29.5374C7.64616 29.4688 7.60689 29.4076 7.55468 29.36C7.50248 29.3125 7.43919 29.2802 7.37123 29.2664C6.33067 29.0352 5.30803 28.7232 4.3118 28.333C4.25673 28.2985 4.19375 28.2803 4.12957 28.2803C4.0654 28.2803 4.00242 28.2985 3.94735 28.333C3.89576 28.3672 3.85186 28.4128 3.81874 28.4665C3.78563 28.5202 3.76407 28.5808 3.75552 28.6441C3.75552 28.6441 3.62124 30.0593 3.62124 30.0793C3.1564 33.5999 2.3564 37.0629 1.23317 40.4169C1.22006 40.4763 1.22006 40.5381 1.23317 40.5975C1.23205 40.6888 1.2514 40.779 1.28972 40.8609C1.32804 40.9429 1.38422 41.0142 1.45374 41.0693C2.24017 41.812 6.30665 41.9625 7.54385 41.9926C8.78105 42.0227 12.9146 41.9926 14.4395 41.27C15.6384 40.6678 15.226 39.082 15.015 38.1185C15.0017 38.0655 14.9784 38.0157 14.9464 37.9722C14.9145 37.9287 14.8746 37.8923 14.829 37.8652C14.7834 37.8381 14.7331 37.8208 14.6811 37.8143C14.629 37.8078 14.5762 37.8123 14.5258 37.8275M12.8283 29.156C12.788 29.0569 12.7122 28.9783 12.6172 28.937C12.5222 28.8957 12.4155 28.895 12.32 28.9352C11.2129 29.3315 10.0464 29.5151 8.87691 29.4771C8.77262 29.4771 8.6726 29.5205 8.59886 29.5977C8.52512 29.6748 8.48372 29.7795 8.48372 29.8886C8.48372 29.9978 8.52512 30.1024 8.59886 30.1796C8.6726 30.2568 8.77262 30.3001 8.87691 30.3001C10.1472 30.3463 11.4148 30.149 12.6173 29.718C12.7141 29.6699 12.7898 29.585 12.829 29.4806C12.8681 29.3762 12.8679 29.2602 12.8283 29.156ZM12.1857 11.4115C11.8333 11.5977 11.529 11.87 11.2986 12.2055C11.0682 12.5409 10.9185 12.9296 10.8622 13.3385C10.847 14.5977 11.1269 15.8417 11.6774 16.9616C12.0131 17.7947 12.3584 18.6678 12.1474 18.9689C11.9364 19.27 11.6774 19.4005 11.0157 19.26C10.4229 19.0953 9.79431 19.1448 9.23176 19.4005C9.02536 19.486 8.7956 19.486 8.5892 19.4005C8.48897 19.3269 8.42014 19.2153 8.39738 19.0894C8.44544 19.0479 8.48417 18.9957 8.5107 18.9367C8.53724 18.8777 8.55094 18.8133 8.55086 18.7481C8.55086 18.6363 8.50839 18.5291 8.43285 18.4501C8.35731 18.371 8.2549 18.3266 8.14807 18.3266C8.09506 18.323 8.042 18.333 7.99353 18.3557C7.94506 18.3785 7.9026 18.4133 7.8699 18.4571C7.79083 18.5215 7.72657 18.6036 7.68176 18.6974C7.63696 18.7911 7.61277 18.8942 7.61099 18.999C7.60537 19.2009 7.64489 19.4013 7.72649 19.5843C7.80808 19.7673 7.92949 19.9277 8.08093 20.0529C8.29011 20.1991 8.53263 20.2845 8.78372 20.3004C9.03481 20.3162 9.28545 20.262 9.50993 20.1432C9.92748 19.9487 10.3992 19.9237 10.8334 20.073C11.1802 20.209 11.5615 20.2143 11.9116 20.0879C12.2617 19.9615 12.5587 19.7113 12.7516 19.3804C12.8732 19.1725 12.9333 18.9315 12.9242 18.6879C12.8465 17.963 12.6519 17.2571 12.3487 16.6003C11.9169 15.6971 11.6532 14.7162 11.5719 13.7098V13.3987C11.6162 13.1182 11.7203 12.8516 11.8763 12.6188C12.0324 12.386 12.2364 12.1929 12.4734 12.0538C13.6051 11.5018 15.3506 12.3449 15.3506 12.3449C15.4225 12.3849 15.5044 12.4006 15.5852 12.3898C15.6659 12.379 15.7415 12.3423 15.8014 12.2846C15.8616 12.2301 15.9041 12.1573 15.923 12.0764C15.9419 11.9955 15.9363 11.9104 15.9069 11.833C15.524 10.7839 15.2913 9.68138 15.2164 8.56112C15.2115 8.45283 15.1668 8.35069 15.0918 8.27593C15.0168 8.20117 14.9171 8.15954 14.8135 8.15966C14.71 8.16953 14.6137 8.21902 14.5429 8.29866C14.4721 8.37829 14.4319 8.48247 14.4299 8.59122C14.4839 9.51075 14.6416 10.4203 14.8999 11.3011C14.0182 10.9396 13.0386 10.9396 12.157 11.3011M3.11297 8.8622C3.60813 8.89242 4.10233 8.78816 4.54764 8.55955C4.99296 8.33094 5.37423 7.98576 5.65446 7.55747C6.14157 8.1011 6.79096 8.45506 7.49585 8.56112C8.18913 8.51194 8.83641 8.18045 9.2989 7.63775C9.82872 8.13924 10.5043 8.43972 11.217 8.49085C11.5595 8.47544 11.8939 8.3767 12.1935 8.20248C12.4932 8.02826 12.75 7.78337 12.9434 7.4872C13.1782 7.7012 13.4356 7.88639 13.7106 8.0392C13.755 8.06759 13.8044 8.08627 13.8559 8.09406C13.9073 8.10184 13.9598 8.09858 14.01 8.0845C14.0602 8.07042 14.1072 8.04579 14.1481 8.01212C14.189 7.97846 14.2229 7.93646 14.2477 7.88866C14.2998 7.79416 14.314 7.68186 14.287 7.57646C14.26 7.47106 14.1941 7.3812 14.1038 7.32662C13.7659 7.17212 13.4814 6.91291 13.2887 6.58393C13.2522 6.51944 13.2003 6.466 13.138 6.42888C13.0758 6.39177 13.0054 6.37225 12.9338 6.37225C12.8622 6.37225 12.7918 6.39177 12.7296 6.42888C12.6673 6.466 12.6154 6.51944 12.579 6.58393C12.1761 7.32663 11.7253 7.65784 11.217 7.65784C10.5733 7.57531 9.97517 7.26759 9.51953 6.78464C9.47831 6.7411 9.42884 6.70704 9.37436 6.68457C9.31987 6.66211 9.26154 6.65177 9.20302 6.65419C9.14379 6.65948 9.08642 6.67843 9.03502 6.70966C8.98362 6.74089 8.93946 6.78364 8.90571 6.83484C8.73699 7.07422 8.52471 7.27636 8.28112 7.42965C8.03754 7.58294 7.76746 7.68435 7.48631 7.72807C6.85751 7.58071 6.2977 7.20794 5.90383 6.67425C5.8666 6.62361 5.81862 6.58273 5.76369 6.55486C5.70875 6.52699 5.64836 6.51288 5.58732 6.51367C5.52314 6.51442 5.46006 6.53122 5.40334 6.56264C5.34662 6.59407 5.29794 6.6392 5.26127 6.69431C5.01191 7.09577 4.30216 8.03922 3.48696 8.0894C3.00448 5.80215 2.3634 3.5547 1.56882 1.36495H1.77985C2.07584 1.34549 2.3718 1.40315 2.64128 1.53276C2.91075 1.66238 3.1453 1.85992 3.32393 2.10767C3.3665 2.17104 3.42461 2.22125 3.49211 2.25303C3.55961 2.28482 3.63403 2.297 3.70758 2.28832C3.77891 2.26758 3.84502 2.23078 3.90134 2.1805C3.95766 2.13023 4.00281 2.06769 4.03363 1.99725C4.15831 1.54561 5.16535 0.993599 6.21073 1.05382C6.64827 1.10093 7.06741 1.26264 7.42947 1.524C7.79153 1.78537 8.08482 2.13795 8.28229 2.54924C8.33138 2.64695 8.41514 2.72062 8.51556 2.7544C8.61599 2.78818 8.72507 2.7794 8.81937 2.72992C8.91261 2.67317 8.98093 2.58045 9.00961 2.47163C9.0383 2.36281 9.0251 2.24655 8.97285 2.14779C8.70882 1.60995 8.31867 1.15102 7.83894 0.813994C7.3592 0.476966 6.8056 0.272876 6.22993 0.220804C5.26226 0.182812 4.31884 0.543113 3.60204 1.22445C3.33923 0.989229 3.03421 0.811239 2.70485 0.700942C2.37548 0.590645 2.02838 0.550244 1.68391 0.582102C1.43736 0.610982 1.1936 0.661333 0.955064 0.732643C0.911175 0.742169 0.869058 0.759137 0.830381 0.782844C0.777877 0.819023 0.734629 0.868159 0.704526 0.925912C0.674424 0.983665 0.658397 1.04825 0.657756 1.11403C0.646634 1.17369 0.646634 1.23503 0.657756 1.29468C0.657756 1.29468 0.657744 1.29468 0.705697 1.29468C1.59589 3.64616 2.30155 6.06962 2.81566 8.54102C2.83768 8.62014 2.87949 8.69166 2.93683 8.74814C2.99417 8.80461 3.06491 8.84399 3.14171 8.8622M11.6582 39.7746C11.679 39.8227 11.7085 39.8661 11.7453 39.9023C11.7821 39.9385 11.8254 39.9667 11.8726 39.9853C11.9198 40.0039 11.9701 40.0127 12.0205 40.011C12.071 40.0092 12.1206 39.9971 12.1666 39.9753C12.2619 39.9311 12.3372 39.85 12.3765 39.7489C12.4159 39.6478 12.4163 39.5347 12.3775 39.4333C12.2017 38.7429 12.121 38.0299 12.1378 37.3156V37.1149C12.1365 37.0608 12.1251 37.0076 12.1042 36.9582C12.0832 36.9087 12.0532 36.8641 12.0158 36.8268C11.9784 36.7895 11.9344 36.7603 11.8862 36.7409C11.838 36.7214 11.7866 36.7121 11.735 36.7134C11.6298 36.716 11.5298 36.7616 11.4563 36.8404C11.3828 36.9192 11.3417 37.0249 11.3417 37.135V37.3156C11.2946 38.1943 11.3986 39.0748 11.6486 39.9151" fill="#F0E5E9"/>
</svg>
