<svg width="384" height="277" viewBox="0 0 384 277" fill="none" xmlns="http://www.w3.org/2000/svg">
<path d="M80.8389 184.506C78.0867 183.964 72.8215 181.087 58.0699 175.22C49.1062 171.656 36.8775 169.244 30.1967 167.503C23.5159 165.762 22.686 165.365 21.9723 164.673C17.3567 160.201 16.7929 147.894 16.5155 143.097C16.2799 139.024 20.5026 133.499 29.0384 125.576C30.7943 123.946 31.9932 123.567 32.179 123.057C32.5245 122.108 30.3823 120.936 29.6634 119.101C28.7385 116.739 29.7103 114.18 31.2473 111.593C33.8976 107.131 40.4903 102.784 48.5302 98.7226C59.1789 93.3437 63.1809 96.9539 67.2414 98.1123C72.3631 99.5734 74.4937 95.1546 76.7737 92.1564C79.1932 88.9746 81.8731 86.2136 84.9701 81.8722C88.8222 76.4721 96.6906 75.3057 104.473 74.6122C121.424 73.1015 131.802 69.6959 136.065 66.3776C136.899 65.7283 136.755 64.4858 136.524 63.5052C135.477 59.0665 128.977 57.2086 124.655 56.3243C123.386 56.0647 121.624 56.2612 121.13 56.191C120.637 56.1208 121.472 55.978 133.021 52.7138C144.57 49.4496 166.808 43.0683 178.693 39.7559C190.579 36.4435 191.438 36.3933 192.253 36.7096C195.388 37.9273 197.639 45.8763 200.578 52.9592C203.434 59.8424 206.641 67.6774 210.598 70.8879C212.567 72.4847 218.762 72.0831 230.98 70.9219C248.498 69.257 258.955 65.2987 260.395 64.9109C264.348 63.8469 275.645 61.8997 291.903 55.7935C314.367 47.3567 315.832 43.125 318.195 43.1339C319.182 43.1376 319.763 44.2804 319.632 45.9796C319.287 50.4646 317.953 53.9382 318.436 56.1307C318.667 57.1819 319.136 58.0413 320.127 58.6846C325.361 62.0825 342.401 57.045 349.569 58.232C352.663 58.7442 346.48 65.7795 331.28 80.61C325.567 86.1847 316.33 88.243 310.814 91.5737C308.896 92.7322 308.81 96.5657 308.813 99.9048C308.816 103.089 310.649 105.777 311.979 107.88C312.563 108.804 312.316 109.92 311.803 110.694C310.661 112.418 308.575 112.854 307.909 112.588C302.986 110.622 312.894 106.103 313.512 104.504C313.824 103.698 313.754 102.648 313.191 101.706C309.842 96.097 298.849 98.2752 283.819 99.899C274.18 100.941 260.776 104.171 253.524 105.923C246.273 107.675 245.663 108.297 245.189 108.986C244.714 109.675 244.395 110.411 244.722 111.477C245.552 114.181 247.331 116.459 247.684 118.91C248.667 125.749 244.303 131.762 243.052 135.518C242.339 137.659 242.729 139.976 242.811 141.541C242.906 143.371 232.261 145.622 216.272 149.171C198.496 153.117 192.779 152.254 188.063 153.086C185.026 153.622 181.312 153.859 178.133 154.72C173.61 155.946 171.417 164.562 171.316 170.05C171.295 171.184 172.032 171.996 172.823 172.491C176.503 174.794 180.589 173.317 189.113 174.847C191.465 175.27 193.546 176.077 194.371 177.122C195.814 178.948 184.066 186.701 167.015 196.776C150.323 206.64 147.508 213.539 145.915 213.937C140.864 215.201 131.647 208.682 126.545 208.266C123.565 208.023 120.832 210.119 116.803 211.577C111.632 213.449 104.36 215.285 99.0969 215.646C98.367 215.696 97.6226 215.329 97.7204 214.35C98.5277 206.272 109.28 200.411 111.611 194.611C112.367 192.732 109.824 190.623 108.281 189.262C104.295 185.746 100.424 185.714 96.0943 186.794C91.5505 188.553 87.8038 185.877 80.8389 184.506Z" stroke="#1E1E1E" stroke-width="3" stroke-linecap="round"/>
<path d="M81.8994 188.704C79.1471 188.162 73.882 185.285 59.1303 179.418C50.1666 175.854 37.9379 173.442 31.2572 171.701C24.5764 169.96 23.7465 169.563 23.0327 168.871C18.4172 164.399 17.8533 152.092 17.5759 147.295C17.3403 143.222 21.5631 137.697 30.0989 129.774C31.8548 128.144 33.0536 127.765 33.2395 127.255C33.5849 126.306 31.4428 125.134 30.7239 123.299C29.7989 120.937 30.7708 118.378 32.3078 115.791C34.9581 111.329 41.5508 106.982 49.5907 102.921C60.2393 97.5418 64.2414 101.152 68.3019 102.31C73.4236 103.772 75.5542 99.3528 77.8342 96.3545C80.2537 93.1727 82.9336 90.4117 86.0305 86.0703C89.8826 80.6702 97.7511 79.5038 105.533 78.8103C122.484 77.2996 132.863 73.894 137.125 70.5757C137.96 69.9264 137.816 68.6839 137.584 67.7033C136.537 63.2646 130.037 61.4067 125.715 60.5224C124.446 60.2628 122.684 60.4593 122.191 60.3891C121.697 60.3189 122.533 60.1761 134.082 56.9119C145.631 53.6477 167.868 47.2665 179.754 43.9541C191.639 40.6416 192.499 40.5914 193.313 40.9078C196.448 42.1254 198.699 50.0744 201.638 57.1573C204.495 64.0405 207.702 71.8755 211.659 75.086C213.627 76.6829 219.822 76.2812 232.04 75.12C249.558 73.4551 260.015 69.4968 261.456 69.1091C265.408 68.0451 276.705 66.0978 292.964 59.9916C315.427 51.5548 316.893 47.3231 319.256 47.332C320.243 47.3357 320.824 48.4785 320.693 50.1778C320.347 54.6627 319.013 58.1363 319.496 60.3288C319.728 61.3801 320.197 62.2395 321.187 62.8827C326.421 66.2806 343.461 61.2432 350.63 62.4301C353.723 62.9423 347.541 69.9777 332.341 84.8081C326.627 90.3828 317.39 92.4411 311.875 95.7718C309.957 96.9303 309.871 100.764 309.874 104.103C309.877 107.287 311.71 109.975 313.04 112.078C313.624 113.002 313.376 114.119 312.864 114.892C311.721 116.616 309.635 117.052 308.969 116.786C304.047 114.82 313.954 110.301 314.573 108.702C314.884 107.896 314.814 106.847 314.251 105.904C310.902 100.295 299.91 102.473 284.88 104.097C275.24 105.139 261.836 108.37 254.585 110.121C247.333 111.873 246.723 112.495 246.249 113.184C245.775 113.873 245.455 114.609 245.782 115.675C246.613 118.379 248.392 120.657 248.744 123.108C249.727 129.947 245.364 135.96 244.113 139.716C243.4 141.857 243.79 144.175 243.871 145.74C243.966 147.569 233.322 149.82 217.333 153.37C199.556 157.316 193.839 156.453 189.124 157.284C186.086 157.82 182.373 158.057 179.194 158.918C174.671 160.144 172.477 168.76 172.376 174.248C172.355 175.382 173.092 176.194 173.884 176.689C177.563 178.992 181.649 177.515 190.174 179.045C192.526 179.468 194.606 180.275 195.432 181.32C196.875 183.147 185.126 190.899 168.076 200.974C151.384 210.838 148.568 217.737 146.975 218.135C141.924 219.399 132.707 212.88 127.606 212.464C124.625 212.221 121.892 214.317 117.863 215.776C112.693 217.647 105.42 219.483 100.157 219.844C99.4275 219.894 98.683 219.527 98.7809 218.548C99.5881 210.47 110.341 204.609 112.672 198.809C113.427 196.93 110.884 194.822 109.341 193.46C105.356 189.944 101.485 189.912 97.1548 190.992C92.611 192.751 88.8643 190.075 81.8994 188.704Z" stroke="#1E1E1E" stroke-width="3" stroke-linecap="round"/>
<path d="M82.879 192.582C80.1267 192.041 74.8616 189.163 60.1099 183.297C51.1462 179.732 38.9175 177.32 32.2368 175.579C25.556 173.838 24.7261 173.441 24.0123 172.75C19.3968 168.277 18.8329 155.97 18.5555 151.174C18.32 147.1 22.5427 141.575 31.0785 133.652C32.8344 132.022 34.0332 131.644 34.2191 131.133C34.5646 130.184 32.4224 129.012 31.7035 127.177C30.7785 124.815 31.7504 122.256 33.2874 119.669C35.9377 115.208 42.5304 110.86 50.5703 106.799C61.2189 101.42 65.221 105.03 69.2815 106.189C74.4032 107.65 76.5338 103.231 78.8138 100.233C81.2333 97.0509 83.9132 94.2899 87.0101 89.9484C90.8622 84.5484 98.7307 83.382 106.513 82.6885C123.464 81.1778 133.842 77.7722 138.105 74.4539C138.939 73.8046 138.795 72.5621 138.564 71.5814C137.517 67.1428 131.017 65.2849 126.695 64.4006C125.426 64.141 123.664 64.3375 123.17 64.2673C122.677 64.1971 123.512 64.0543 135.061 60.7901C146.61 57.5259 168.848 51.1446 180.733 47.8322C192.619 44.5198 193.478 44.4696 194.293 44.7859C197.428 46.0036 199.679 53.9526 202.618 61.0355C205.474 67.9187 208.681 75.7537 212.638 78.9642C214.607 80.561 220.802 80.1594 233.02 78.9982C250.538 77.3333 260.995 73.375 262.435 72.9872C266.388 71.9232 277.685 69.976 293.943 63.8698C316.407 55.433 317.872 51.2013 320.235 51.2102C321.222 51.2139 321.803 52.3567 321.672 54.0559C321.327 58.5409 319.993 62.0145 320.476 64.207C320.707 65.2582 321.176 66.1176 322.167 66.7609C327.401 70.1588 344.441 65.1213 351.609 66.3083C354.703 66.8205 348.52 73.8558 333.32 88.6863C327.607 94.2609 318.37 96.3193 312.854 99.65C310.936 100.808 310.85 104.642 310.853 107.981C310.856 111.165 312.69 113.853 314.019 115.956C314.603 116.88 314.356 117.997 313.843 118.77C312.701 120.494 310.615 120.93 309.949 120.664C305.026 118.698 314.934 114.179 315.552 112.58C315.864 111.774 315.794 110.725 315.231 109.782C311.882 104.173 300.889 106.352 285.86 107.975C276.22 109.017 262.816 112.248 255.564 114C248.313 115.752 247.703 116.374 247.229 117.062C246.754 117.751 246.435 118.488 246.762 119.553C247.592 122.257 249.371 124.535 249.724 126.987C250.707 133.825 246.343 139.839 245.093 143.594C244.38 145.735 244.77 148.053 244.851 149.618C244.946 151.447 234.301 153.698 218.312 157.248C200.536 161.194 194.819 160.331 190.103 161.162C187.066 161.698 183.352 161.935 180.173 162.797C175.65 164.022 173.457 172.638 173.356 178.126C173.335 179.26 174.072 180.072 174.863 180.568C178.543 182.871 182.629 181.393 191.153 182.924C193.505 183.346 195.586 184.154 196.411 185.198C197.855 187.025 186.106 194.777 169.055 204.853C152.363 214.716 149.548 221.615 147.955 222.013C142.904 223.277 133.687 216.758 128.585 216.342C125.605 216.099 122.872 218.195 118.843 219.654C113.672 221.525 106.4 223.361 101.137 223.722C100.407 223.772 99.6626 223.405 99.7605 222.426C100.568 214.348 111.32 208.487 113.651 202.688C114.407 200.808 111.864 198.7 110.321 197.338C106.335 193.823 102.465 193.79 98.1344 194.87C93.5906 196.629 89.8439 193.953 82.879 192.582Z" stroke="#1E1E1E" stroke-width="3" stroke-linecap="round"/>
<path d="M83.791 196.193C81.0369 195.644 75.7655 192.741 60.9998 186.819C52.0274 183.22 39.7907 180.776 33.1048 179.015C26.419 177.255 25.5882 176.854 24.8732 176.157C20.2493 171.652 19.6671 159.272 19.3825 154.447C19.1408 150.35 23.357 144.799 31.8843 136.842C33.6384 135.205 34.8372 134.826 35.0224 134.313C35.3665 133.359 33.2218 132.177 32.5 130.33C31.5712 127.953 32.5396 125.381 34.0734 122.78C36.7181 118.297 43.3068 113.934 51.3437 109.861C61.9884 104.466 65.9973 108.103 70.061 109.274C75.1867 110.752 77.3116 106.31 79.5881 103.298C82.0038 100.101 84.6806 97.3278 87.7723 92.9656C91.6179 87.5397 99.4875 86.3781 107.271 85.692C124.226 84.1975 134.604 80.7873 138.863 77.456C139.697 76.804 139.551 75.5541 139.318 74.5674C138.264 70.1013 131.759 68.223 127.434 67.3271C126.164 67.0641 124.402 67.2591 123.908 67.1878C123.414 67.1165 124.25 66.9741 135.798 63.7078C147.347 60.4416 169.583 54.0559 181.468 50.7417C193.353 47.4275 194.213 47.3782 195.028 47.6976C198.166 48.927 200.43 56.9257 203.381 64.0543C206.248 70.9819 209.468 78.8674 213.431 82.1025C215.403 83.7116 221.6 83.3167 233.82 82.1668C251.342 80.518 261.797 76.552 263.238 76.1641C267.19 75.0997 278.488 73.1578 294.744 67.0399C317.204 58.5869 318.663 54.3327 321.027 54.3451C322.015 54.3503 322.598 55.5007 322.469 57.2096C322.13 61.7203 320.8 65.2122 321.287 67.4181C321.52 68.4759 321.991 69.341 322.983 69.9894C328.223 73.415 345.262 68.3732 352.435 69.5777C355.531 70.0974 349.356 77.1647 334.173 92.0594C328.465 97.6581 319.227 99.7149 313.715 103.057C311.798 104.219 311.718 108.075 311.726 111.434C311.733 114.636 313.571 117.343 314.904 119.46C315.49 120.391 315.244 121.513 314.732 122.29C313.592 124.023 311.506 124.458 310.839 124.189C305.912 122.205 315.817 117.674 316.433 116.067C316.743 115.256 316.672 114.201 316.107 113.251C312.749 107.605 301.755 109.78 286.722 111.391C277.081 112.424 263.676 115.654 256.425 117.406C249.173 119.157 248.564 119.782 248.09 120.474C247.617 121.166 247.299 121.907 247.627 122.978C248.462 125.7 250.245 127.993 250.601 130.46C251.595 137.34 247.238 143.382 245.993 147.158C245.283 149.31 245.676 151.642 245.76 153.216C245.858 155.056 235.212 157.305 219.223 160.851C201.445 164.794 195.725 163.918 191.009 164.747C187.971 165.282 184.257 165.514 181.078 166.376C176.555 167.603 174.373 176.265 174.28 181.786C174.261 182.926 175 183.744 175.792 184.243C179.476 186.565 183.561 185.085 192.091 186.637C194.445 187.065 196.528 187.881 197.355 188.933C198.801 190.772 187.06 198.553 170.017 208.662C153.334 218.558 150.528 225.493 148.934 225.892C143.883 227.155 134.653 220.584 129.549 220.159C126.568 219.91 123.837 222.014 119.808 223.475C114.639 225.35 107.366 227.186 102.102 227.541C101.372 227.591 100.626 227.22 100.723 226.235C101.518 218.112 112.266 212.232 114.59 206.402C115.343 204.513 112.796 202.388 111.25 201.017C107.258 197.475 103.386 197.437 99.0554 198.516C94.5125 200.279 90.7605 197.582 83.791 196.193Z" stroke="#1E1E1E" stroke-width="3" stroke-linecap="round"/>
<path d="M84.8383 200.339C82.086 199.797 76.8209 196.919 62.0692 191.053C53.1055 187.488 40.8768 185.076 34.1961 183.335C27.5153 181.595 26.6854 181.198 25.9716 180.506C21.3561 176.033 20.7922 163.727 20.5148 158.93C20.2792 154.857 24.502 149.332 33.0378 141.409C34.7937 139.779 35.9925 139.4 36.1784 138.889C36.5238 137.941 34.3817 136.769 33.6628 134.933C32.7378 132.571 33.7097 130.013 35.2467 127.425C37.897 122.964 44.4897 118.616 52.5296 114.555C63.1782 109.176 67.1803 112.787 71.2408 113.945C76.3625 115.406 78.4931 110.987 80.7731 107.989C83.1926 104.807 85.8725 102.046 88.9694 97.7048C92.8215 92.3047 100.69 91.1384 108.472 90.4448C125.423 88.9341 135.802 85.5285 140.064 82.2103C140.898 81.5609 140.755 80.3184 140.523 79.3378C139.476 74.8991 132.976 73.0413 128.654 72.157C127.385 71.8973 125.623 72.0938 125.13 72.0236C124.636 71.9534 125.472 71.8106 137.021 68.5464C148.57 65.2822 170.807 58.901 182.692 55.5886C194.578 52.2762 195.437 52.2259 196.252 52.5423C199.387 53.7599 201.638 61.7089 204.577 68.7918C207.434 75.675 210.641 83.5101 214.598 86.7205C216.566 88.3174 222.761 87.9157 234.979 86.7546C252.497 85.0896 262.954 81.1314 264.395 80.7436C268.347 79.6796 279.644 77.7323 295.902 71.6261C318.366 63.1893 319.831 58.9576 322.195 58.9665C323.182 58.9703 323.763 60.1131 323.632 61.8123C323.286 66.2972 321.952 69.7708 322.435 71.9633C322.667 73.0146 323.136 73.874 324.126 74.5172C329.36 77.9152 346.4 72.8777 353.569 74.0646C356.662 74.5768 350.48 81.6122 335.28 96.4427C329.566 102.017 320.329 104.076 314.814 107.406C312.896 108.565 312.81 112.398 312.813 115.737C312.816 118.922 314.649 121.609 315.979 123.713C316.563 124.637 316.315 125.753 315.802 126.527C314.66 128.251 312.574 128.686 311.908 128.42C306.986 126.455 316.893 121.936 317.511 120.337C317.823 119.53 317.753 118.481 317.19 117.538C313.841 111.93 302.849 114.108 287.819 115.732C278.179 116.773 264.775 120.004 257.524 121.756C250.272 123.508 249.662 124.13 249.188 124.819C248.714 125.507 248.394 126.244 248.721 127.309C249.551 130.014 251.331 132.291 251.683 134.743C252.666 141.581 248.303 147.595 247.052 151.35C246.339 153.491 246.729 155.809 246.81 157.374C246.905 159.204 236.261 161.455 220.271 165.004C202.495 168.95 196.778 168.087 192.063 168.919C189.025 169.455 185.312 169.691 182.133 170.553C177.61 171.779 175.416 180.394 175.315 185.883C175.294 187.016 176.031 187.829 176.823 188.324C180.502 190.627 184.588 189.149 193.113 190.68C195.465 191.102 197.545 191.91 198.371 192.954C199.814 194.781 188.065 202.534 171.014 212.609C154.323 222.472 151.507 229.371 149.914 229.77C144.863 231.033 135.646 224.514 130.545 224.098C127.564 223.856 124.831 225.952 120.802 227.41C115.632 229.281 108.359 231.117 103.096 231.479C102.366 231.529 101.622 231.161 101.72 230.182C102.527 222.105 113.28 216.244 115.611 210.444C116.366 208.564 113.823 206.456 112.28 205.095C108.295 201.579 104.424 201.547 100.094 202.626C95.5499 204.385 91.8032 201.709 84.8383 200.339Z" stroke="#1E1E1E" stroke-width="3" stroke-linecap="round"/>
<path d="M85.8179 204.217C83.0656 203.675 77.8005 200.798 63.0488 194.931C54.0851 191.367 41.8564 188.954 35.1757 187.214C28.4949 185.473 27.665 185.076 26.9512 184.384C22.3357 179.911 21.7719 167.605 21.4944 162.808C21.2589 158.735 25.4816 153.21 34.0174 145.287C35.7733 143.657 36.9721 143.278 37.158 142.768C37.5035 141.819 35.3613 140.647 34.6424 138.811C33.7174 136.45 34.6893 133.891 36.2263 131.304C38.8766 126.842 45.4693 122.495 53.5092 118.433C64.1578 113.054 68.1599 116.665 72.2204 117.823C77.3421 119.284 79.4727 114.865 81.7527 111.867C84.1722 108.685 86.8521 105.924 89.949 101.583C93.8012 96.1829 101.67 95.0165 109.452 94.323C126.403 92.8123 136.781 89.4067 141.044 86.0884C141.878 85.4391 141.734 84.1966 141.503 83.216C140.456 78.7773 133.956 76.9194 129.634 76.0351C128.365 75.7755 126.603 75.972 126.109 75.9018C125.616 75.8316 126.451 75.6888 138 72.4246C149.549 69.1604 171.787 62.7792 183.672 59.4667C195.558 56.1543 196.417 56.1041 197.232 56.4205C200.366 57.6381 202.618 65.5871 205.557 72.67C208.413 79.5532 211.62 87.3882 215.577 90.5987C217.546 92.1956 223.741 91.7939 235.959 90.6327C253.477 88.9678 263.934 85.0095 265.374 84.6218C269.327 83.5577 280.624 81.6105 296.882 75.5043C319.346 67.0675 320.811 62.8358 323.174 62.8447C324.161 62.8484 324.742 63.9912 324.611 65.6905C324.266 70.1754 322.932 73.649 323.415 75.8415C323.646 76.8928 324.115 77.7522 325.106 78.3954C330.34 81.7933 347.38 76.7558 354.548 77.9428C357.642 78.455 351.459 85.4903 336.259 100.321C330.546 105.895 321.309 107.954 315.793 111.285C313.875 112.443 313.789 116.277 313.792 119.616C313.795 122.8 315.628 125.488 316.958 127.591C317.542 128.515 317.295 129.631 316.782 130.405C315.64 132.129 313.554 132.564 312.888 132.298C307.965 130.333 317.873 125.814 318.491 124.215C318.803 123.409 318.733 122.359 318.17 121.416C314.821 115.808 303.828 117.986 288.798 119.61C279.159 120.651 265.755 123.882 258.503 125.634C251.252 127.386 250.642 128.008 250.168 128.697C249.693 129.386 249.374 130.122 249.701 131.187C250.531 133.892 252.31 136.169 252.663 138.621C253.646 145.459 249.282 151.473 248.031 155.229C247.318 157.369 247.708 159.687 247.79 161.252C247.885 163.082 237.24 165.333 221.251 168.882C203.475 172.828 197.758 171.965 193.042 172.797C190.005 173.333 186.291 173.569 183.112 174.431C178.589 175.657 176.396 184.272 176.295 189.761C176.274 190.895 177.011 191.707 177.802 192.202C181.482 194.505 185.568 193.028 194.092 194.558C196.444 194.98 198.525 195.788 199.35 196.833C200.793 198.659 189.045 206.412 171.994 216.487C155.302 226.35 152.487 233.249 150.894 233.648C145.843 234.912 136.626 228.392 131.524 227.977C128.544 227.734 125.811 229.83 121.782 231.288C116.611 233.16 109.339 234.995 104.076 235.357C103.346 235.407 102.602 235.04 102.699 234.06C103.507 225.983 114.259 220.122 116.59 214.322C117.346 212.442 114.803 210.334 113.26 208.973C109.274 205.457 105.403 205.425 101.073 206.505C96.5295 208.264 92.7828 205.588 85.8179 204.217Z" stroke="#1E1E1E" stroke-width="3" stroke-linecap="round"/>
<path d="M86.7299 207.827C83.9758 207.278 78.7044 204.376 63.9387 198.454C54.9664 194.855 42.7296 192.411 36.0437 190.65C29.3579 188.889 28.5271 188.489 27.8121 187.792C23.1882 183.286 22.606 170.907 22.3214 166.082C22.0797 161.984 26.2959 156.434 34.8232 148.477C36.5773 146.84 37.7761 146.461 37.9613 145.947C38.3054 144.994 36.1607 143.812 35.4389 141.964C34.5101 139.588 35.4785 137.015 37.0123 134.415C39.657 129.932 46.2457 125.568 54.2826 121.495C64.9273 116.101 68.9362 119.738 72.9999 120.909C78.1257 122.386 80.2506 117.945 82.527 114.932C84.9427 111.736 87.6195 108.962 90.7112 104.6C94.5568 99.1743 102.426 98.0128 110.21 97.3267C127.165 95.8321 137.543 92.4219 141.802 89.0906C142.636 88.4387 142.49 87.1887 142.257 86.202C141.203 81.7359 134.698 79.8576 130.373 78.9618C129.103 78.6988 127.341 78.8938 126.847 78.8225C126.353 78.7511 127.189 78.6087 138.737 75.3425C150.286 72.0763 172.522 65.6906 184.407 62.3763C196.292 59.0621 197.152 59.0129 197.967 59.3323C201.105 60.5616 203.369 68.5604 206.319 75.6889C209.187 82.6166 212.407 90.5021 216.37 93.7371C218.341 95.3462 224.539 94.9514 236.759 93.8014C254.281 92.1526 264.736 88.1866 266.177 87.7987C270.129 86.7343 281.427 84.7924 297.683 78.6745C320.143 70.2215 321.602 65.9674 323.966 65.9798C324.954 65.985 325.537 67.1353 325.408 68.8443C325.069 73.3549 323.739 76.8468 324.226 79.0528C324.459 80.1105 324.93 80.9756 325.922 81.6241C331.162 85.0496 348.201 80.0078 355.374 81.2123C358.47 81.7321 352.295 88.7994 337.111 103.694C331.404 109.293 322.166 111.35 316.654 114.692C314.737 115.854 314.656 119.71 314.664 123.068C314.672 126.271 316.51 128.977 317.843 131.095C318.429 132.025 318.183 133.148 317.671 133.925C316.531 135.657 314.445 136.092 313.778 135.824C308.851 133.839 318.756 129.309 319.372 127.701C319.682 126.891 319.611 125.835 319.046 124.886C315.688 119.24 304.694 121.415 289.661 123.026C280.019 124.059 266.615 127.289 259.364 129.04C252.112 130.792 251.503 131.417 251.029 132.109C250.556 132.801 250.237 133.541 250.566 134.613C251.401 137.334 253.184 139.628 253.54 142.095C254.534 148.974 250.177 155.017 248.932 158.792C248.222 160.944 248.615 163.276 248.699 164.851C248.797 166.691 238.151 168.94 222.161 172.486C204.384 176.429 198.664 175.552 193.948 176.382C190.91 176.916 187.195 177.149 184.016 178.011C179.494 179.238 177.312 187.9 177.219 193.42C177.2 194.561 177.938 195.379 178.731 195.878C182.415 198.2 186.5 196.72 195.03 198.272C197.384 198.7 199.466 199.516 200.294 200.567C201.74 202.407 189.999 210.187 172.956 220.296C156.273 230.193 153.467 237.128 151.873 237.526C146.822 238.79 137.592 232.219 132.488 231.793C129.507 231.544 126.775 233.649 122.747 235.11C117.578 236.984 110.305 238.82 105.041 239.176C104.311 239.225 103.565 238.855 103.662 237.87C104.457 229.746 115.205 223.867 117.529 218.037C118.282 216.147 115.735 214.023 114.189 212.652C110.197 209.109 106.324 209.071 101.994 210.151C97.4514 211.913 93.6994 209.216 86.7299 207.827Z" stroke="#1E1E1E" stroke-width="3" stroke-linecap="round"/>
<path d="M87.7095 211.705C84.9554 211.157 79.6841 208.254 64.9183 202.332C55.946 198.733 43.7092 196.289 37.0234 194.528C30.3375 192.767 29.5067 192.367 28.7917 191.67C24.1678 187.165 23.5856 174.785 23.301 169.96C23.0593 165.863 27.2755 160.312 35.8028 152.355C37.5569 150.718 38.7557 150.339 38.9409 149.826C39.285 148.872 37.1404 147.69 36.4185 145.843C35.4897 143.466 36.4582 140.893 37.9919 138.293C40.6366 133.81 47.2253 129.447 55.2623 125.374C65.9069 119.979 69.9158 123.616 73.9796 124.787C79.1053 126.264 81.2302 121.823 83.5066 118.811C85.9223 115.614 88.5991 112.841 91.6908 108.478C95.5364 103.053 103.406 101.891 111.19 101.205C128.145 99.7103 138.523 96.3001 142.782 92.9688C143.615 92.3169 143.47 91.0669 143.237 90.0802C142.182 85.6141 135.677 83.7358 131.352 82.8399C130.083 82.5769 128.32 82.772 127.827 82.7006C127.333 82.6293 128.168 82.4869 139.717 79.2207C151.265 75.9544 173.502 69.5687 185.387 66.2545C197.272 62.9403 198.131 62.8911 198.947 63.2104C202.085 64.4398 204.348 72.4385 207.299 79.5671C210.167 86.4948 213.386 94.3803 217.35 97.6153C219.321 99.2244 225.518 98.8295 237.739 97.6796C255.261 96.0308 265.716 92.0648 267.156 91.6769C271.109 90.6125 282.407 88.6706 298.662 82.5527C321.122 74.0997 322.582 69.8455 324.946 69.858C325.933 69.8631 326.516 71.0135 326.388 72.7224C326.048 77.2331 324.719 80.725 325.205 82.931C325.439 83.9887 325.909 84.8538 326.901 85.5023C332.142 88.9278 349.181 83.886 356.354 85.0905C359.449 85.6102 353.275 92.6775 338.091 107.572C332.384 113.171 323.146 115.228 317.634 118.57C315.716 119.732 315.636 123.588 315.644 126.946C315.652 130.149 317.49 132.855 318.823 134.973C319.409 135.903 319.163 137.026 318.651 137.803C317.511 139.535 315.425 139.971 314.758 139.702C309.831 137.718 319.735 133.187 320.351 131.579C320.662 130.769 320.59 129.713 320.026 128.764C316.668 123.118 305.674 125.293 290.641 126.904C280.999 127.937 267.595 131.167 260.343 132.919C253.092 134.67 252.482 135.295 252.009 135.987C251.536 136.679 251.217 137.419 251.546 138.491C252.38 141.213 254.164 143.506 254.52 145.973C255.513 152.853 251.157 158.895 249.911 162.67C249.201 164.823 249.595 167.155 249.678 168.729C249.776 170.569 239.131 172.818 223.141 176.364C205.364 180.307 199.644 179.431 194.927 180.26C191.889 180.795 188.175 181.027 184.996 181.889C180.473 183.116 178.292 191.778 178.199 197.298C178.179 198.439 178.918 199.257 179.71 199.756C183.395 202.078 187.48 200.598 196.01 202.15C198.363 202.578 200.446 203.394 201.273 204.445C202.72 206.285 190.978 214.065 173.936 224.174C157.253 234.071 154.446 241.006 152.853 241.404C147.802 242.668 138.572 236.097 133.468 235.671C130.486 235.423 127.755 237.527 123.727 238.988C118.557 240.863 111.284 242.698 106.02 243.054C105.29 243.103 104.545 242.733 104.641 241.748C105.437 233.624 116.185 227.745 118.508 221.915C119.261 220.026 116.714 217.901 115.168 216.53C111.176 212.987 107.304 212.949 102.974 214.029C98.4311 215.792 94.679 213.095 87.7095 211.705Z" stroke="#1E1E1E" stroke-width="3" stroke-linecap="round"/>
<path d="M88.6892 215.584C85.9351 215.035 80.6637 212.132 65.8979 206.21C56.9256 202.611 44.6888 200.167 38.003 198.406C31.3172 196.646 30.4864 196.245 29.7713 195.548C25.1474 191.043 24.5653 178.663 24.2807 173.838C24.039 169.741 28.2552 164.19 36.7825 156.233C38.5366 154.596 39.7353 154.217 39.9205 153.704C40.2647 152.75 38.12 151.568 37.3981 149.721C36.4693 147.344 37.4378 144.772 38.9715 142.171C41.6163 137.688 48.205 133.325 56.2419 129.252C66.8866 123.857 70.8955 127.494 74.9592 128.665C80.0849 130.143 82.2098 125.701 84.4862 122.689C86.902 119.492 89.5788 116.719 92.6705 112.357C96.516 106.931 104.386 105.769 112.17 105.083C129.125 103.588 139.502 100.178 143.762 96.8469C144.595 96.195 144.449 94.9451 144.216 93.9584C143.162 89.4922 136.657 87.614 132.332 86.7181C131.062 86.4551 129.3 86.6501 128.806 86.5788C128.313 86.5075 129.148 86.3651 140.697 83.0988C152.245 79.8326 174.481 73.4469 186.366 70.1327C198.251 66.8185 199.111 66.7692 199.926 67.0886C203.064 68.318 205.328 76.3167 208.279 83.4453C211.146 90.3729 214.366 98.2584 218.329 101.493C220.301 103.103 226.498 102.708 238.718 101.558C256.24 99.909 266.695 95.943 268.136 95.5551C272.088 94.4907 283.387 92.5487 299.642 86.4309C322.102 77.9779 323.561 73.7237 325.925 73.7361C326.913 73.7413 327.496 74.8916 327.367 76.6006C327.028 81.1112 325.699 84.6032 326.185 86.8091C326.418 87.8669 326.889 88.732 327.881 89.3804C333.121 92.806 350.16 87.7642 357.334 88.9686C360.429 89.4884 354.254 96.5557 339.071 111.45C333.363 117.049 324.126 119.106 318.613 122.448C316.696 123.61 316.616 127.466 316.624 130.825C316.631 134.027 318.469 136.734 319.802 138.851C320.388 139.782 320.142 140.904 319.63 141.681C318.49 143.414 316.404 143.849 315.738 143.58C310.81 141.596 320.715 137.065 321.331 135.458C321.641 134.647 321.57 133.592 321.006 132.642C317.647 126.996 306.653 129.171 291.621 130.782C281.979 131.815 268.574 135.045 261.323 136.797C254.071 138.548 253.462 139.173 252.989 139.865C252.515 140.557 252.197 141.298 252.525 142.369C253.36 145.091 255.143 147.384 255.5 149.851C256.493 156.731 252.137 162.773 250.891 166.549C250.181 168.701 250.574 171.033 250.658 172.607C250.756 174.447 240.111 176.696 224.121 180.242C206.343 184.185 200.623 183.309 195.907 184.138C192.869 184.673 189.155 184.905 185.976 185.767C181.453 186.994 179.271 195.656 179.178 201.177C179.159 202.317 179.898 203.135 180.69 203.634C184.374 205.956 188.46 204.476 196.99 206.028C199.343 206.456 201.426 207.272 202.253 208.324C203.699 210.163 191.958 217.944 174.916 228.053C158.232 237.949 155.426 244.884 153.833 245.283C148.782 246.546 139.551 239.975 134.448 239.55C131.466 239.301 128.735 241.405 124.706 242.866C119.537 244.741 112.264 246.577 107 246.932C106.27 246.982 105.525 246.611 105.621 245.626C106.417 237.503 117.164 231.623 119.488 225.793C120.241 223.904 117.694 221.779 116.148 220.408C112.156 216.866 108.284 216.828 103.954 217.907C99.4107 219.67 95.6587 216.973 88.6892 215.584Z" stroke="#1E1E1E" stroke-width="3" stroke-linecap="round"/>
<path d="M89.6688 219.462C86.9147 218.913 81.6434 216.011 66.8776 210.088C57.9053 206.49 45.6685 204.045 38.9826 202.285C32.2968 200.524 31.466 200.123 30.751 199.426C26.1271 194.921 25.5449 182.541 25.2603 177.716C25.0186 173.619 29.2348 168.068 37.7621 160.111C39.5162 158.474 40.715 158.095 40.9002 157.582C41.2443 156.628 39.0997 155.446 38.3778 153.599C37.449 151.222 38.4175 148.65 39.9512 146.05C42.5959 141.566 49.1846 137.203 57.2216 133.13C67.8662 127.735 71.8751 131.372 75.9388 132.544C81.0646 134.021 83.1895 129.579 85.4659 126.567C87.8816 123.37 90.5584 120.597 93.6501 116.235C97.4957 110.809 105.365 109.647 113.149 108.961C130.104 107.467 140.482 104.056 144.741 100.725C145.575 100.073 145.429 98.8232 145.196 97.8366C144.142 93.3704 137.637 91.4921 133.312 90.5963C132.042 90.3333 130.28 90.5283 129.786 90.457C129.292 90.3857 130.128 90.2432 141.676 86.977C153.225 83.7108 175.461 77.3251 187.346 74.0109C199.231 70.6966 200.091 70.6474 200.906 70.9668C204.044 72.1962 206.308 80.1949 209.258 87.3235C212.126 94.2511 215.346 102.137 219.309 105.372C221.28 106.981 227.477 106.586 239.698 105.436C257.22 103.787 267.675 99.8212 269.116 99.4333C273.068 98.3689 284.366 96.4269 300.622 90.309C323.082 81.8561 324.541 77.6019 326.905 77.6143C327.892 77.6195 328.475 78.7698 328.347 80.4788C328.008 84.9894 326.678 88.4813 327.165 90.6873C327.398 91.7451 327.868 92.6102 328.86 93.2586C334.101 96.6841 351.14 91.6424 358.313 92.8468C361.408 93.3666 355.234 100.434 340.05 115.329C334.343 120.927 325.105 122.984 319.593 126.326C317.676 127.488 317.595 131.344 317.603 134.703C317.611 137.905 319.449 140.612 320.782 142.729C321.368 143.66 321.122 144.782 320.61 145.56C319.47 147.292 317.384 147.727 316.717 147.458C311.79 145.474 321.695 140.943 322.311 139.336C322.621 138.525 322.55 137.47 321.985 136.521C318.627 130.874 307.633 133.049 292.6 134.66C282.958 135.694 269.554 138.923 262.303 140.675C255.051 142.426 254.442 143.051 253.968 143.743C253.495 144.435 253.176 145.176 253.505 146.248C254.34 148.969 256.123 151.263 256.479 153.729C257.473 160.609 253.116 166.651 251.871 170.427C251.16 172.579 251.554 174.911 251.638 176.485C251.735 178.326 241.09 180.574 225.1 184.121C207.323 188.063 201.603 187.187 196.887 188.017C193.849 188.551 190.134 188.784 186.955 189.646C182.432 190.872 180.251 199.535 180.158 205.055C180.139 206.195 180.877 207.013 181.67 207.513C185.354 209.834 189.439 208.354 197.969 209.906C200.323 210.335 202.405 211.15 203.232 212.202C204.679 214.041 192.937 221.822 175.895 231.931C159.212 241.827 156.405 248.762 154.812 249.161C149.761 250.424 140.531 243.853 135.427 243.428C132.445 243.179 129.714 245.283 125.686 246.744C120.516 248.619 113.244 250.455 107.98 250.81C107.249 250.86 106.504 250.489 106.601 249.505C107.396 241.381 118.144 235.502 120.468 229.671C121.221 227.782 118.674 225.658 117.128 224.286C113.136 220.744 109.263 220.706 104.933 221.785C100.39 223.548 96.6383 220.851 89.6688 219.462Z" stroke="#1E1E1E" stroke-width="3" stroke-linecap="round"/>
</svg>
