<svg width="17" height="19" viewBox="0 0 17 19" fill="none" xmlns="http://www.w3.org/2000/svg">
<path d="M6.5 15L1 18V3H8L9 5.5L12.5 9V18L6.5 15Z" fill="#00193F" stroke="#00193F"/>
<circle cx="12" cy="5" r="4.5" fill="#00193F" stroke="#19B2A2"/>
<path d="M14.5463 4.53747C14.662 4.53747 14.7778 4.65321 14.7778 4.76895V5.23192C14.7778 5.36212 14.662 5.4634 14.5463 5.4634H12.463V7.54673C12.463 7.67694 12.3472 7.77821 12.2315 7.77821H11.7685C11.6383 7.77821 11.537 7.67694 11.537 7.54673V5.4634H9.45371C9.3235 5.4634 9.22223 5.36212 9.22223 5.23192V4.76895C9.22223 4.65321 9.3235 4.53747 9.45371 4.53747H11.537V2.45414C11.537 2.3384 11.6383 2.22266 11.7685 2.22266H12.2315C12.3472 2.22266 12.463 2.3384 12.463 2.45414V4.53747H14.5463Z" fill="#19B2A2"/>
</svg>
